<svg width="501" height="500" viewBox="0 0 501 500" fill="none" xmlns="http://www.w3.org/2000/svg">
<g clip-path="url(#clip0_2_1227)">
<path d="M444.42 312.896H263.674C260.442 312.896 257.812 310.266 257.812 307.034V43.7599C257.812 40.5279 260.442 37.8979 263.674 37.8979H444.42C447.652 37.8979 450.282 40.5269 450.282 43.7599V307.033C450.282 310.266 447.652 312.895 444.42 312.895V312.896ZM263.674 38.1479C260.579 38.1479 258.062 40.6659 258.062 43.7599V307.033C258.062 310.128 260.58 312.645 263.674 312.645H444.42C447.515 312.645 450.032 310.127 450.032 307.033V43.7599C450.032 40.6659 447.514 38.1479 444.42 38.1479H263.674Z" fill="#E0E0E0"/>
<path d="M235.993 312.896H55.246C52.014 312.896 49.384 310.266 49.384 307.034V43.7599C49.384 40.5279 52.013 37.8979 55.246 37.8979H235.993C239.225 37.8979 241.855 40.5269 241.855 43.7599V307.033C241.855 310.266 239.225 312.895 235.993 312.895V312.896ZM55.246 38.1479C52.152 38.1479 49.634 40.6659 49.634 43.7599V307.033C49.634 310.128 52.152 312.645 55.246 312.645H235.993C239.088 312.645 241.605 310.127 241.605 307.033V43.7599C241.605 40.6659 239.087 38.1479 235.993 38.1479H55.246Z" fill="#E0E0E0"/>
<path d="M500.5 373.965H0.5V374.215H500.5V373.965Z" fill="#E0E0E0"/>
<path d="M68.232 388.23H52.172V388.48H68.232V388.23Z" fill="#E0E0E0"/>
<path d="M224.382 385.52H170.852V385.77H224.382V385.52Z" fill="#E0E0E0"/>
<path d="M105.482 397.52H69.232V397.77H105.482V397.52Z" fill="#E0E0E0"/>
<path d="M422.042 385.39H378.852V385.64H422.042V385.39Z" fill="#E0E0E0"/>
<path d="M437.282 385.39H430.952V385.64H437.282V385.39Z" fill="#E0E0E0"/>
<path d="M370.602 391.62H316.712V391.87H370.602V391.62Z" fill="#E0E0E0"/>
<path d="M105.055 326.326C105.025 325.381 101.844 231.494 86.572 216.644C71.719 202.205 54.671 216.107 53.955 216.705L52.424 214.87C52.617 214.707 71.856 199.003 88.24 214.931C104.197 230.448 107.319 322.346 107.443 326.251L105.055 326.326Z" fill="#E0E0E0"/>
<path d="M106.366 344.777C106.256 343.655 95.929 232.066 136.681 185.297L138.483 186.865C98.407 232.859 108.638 343.433 108.745 344.544L106.367 344.778L106.366 344.777Z" fill="#E0E0E0"/>
<path d="M104.859 332.974L102.474 332.815C102.558 331.55 110.45 205.954 80.557 178.46L82.175 176.7C112.905 204.966 105.202 327.759 104.859 332.973V332.974Z" fill="#E0E0E0"/>
<path d="M108.75 332.904L106.36 332.885C106.389 329.426 107.346 248.051 130.461 234.804C135.599 231.856 140.631 231.365 145.417 233.345C159.394 239.126 166.32 264.002 166.609 265.057L164.303 265.687C164.235 265.439 157.396 240.884 144.501 235.553C140.436 233.875 136.114 234.318 131.65 236.876C109.716 249.446 108.758 332.07 108.751 332.903L108.75 332.904Z" fill="#E0E0E0"/>
<path d="M99.749 332.962L97.364 332.827C97.4 332.185 100.85 268.521 83.669 246.09C79.506 240.657 74.987 238.066 70.212 238.399C58.955 239.186 49.514 255.66 49.42 255.826L47.338 254.65C47.748 253.926 57.501 236.894 70.041 236.016C75.651 235.617 80.881 238.523 85.565 244.639C103.286 267.773 99.9 330.314 99.747 332.963L99.749 332.962Z" fill="#E0E0E0"/>
<path d="M103.516 341.621C103.048 335.445 92.284 190.079 111.224 164.464L113.145 165.883C94.73 190.791 105.787 339.936 105.9 341.439L103.516 341.621Z" fill="#E0E0E0"/>
<path d="M150.568 248.078C150.568 248.078 139.206 252.266 142.584 262.155C145.962 272.044 181.889 288.319 181.889 288.319C181.889 288.319 196.936 274.527 183.118 252.098C169.299 229.668 150.875 241.001 150.568 248.078Z" fill="#EBEBEB"/>
<path d="M101.175 229.254C101.175 229.254 113.274 228.747 113.962 239.175C114.649 249.602 87.751 278.449 87.751 278.449C87.751 278.449 68.556 271.509 72.678 245.489C76.801 219.469 98.169 222.84 101.175 229.254Z" fill="#EBEBEB"/>
<path d="M90.932 179.341C90.932 179.341 98.998 178.475 98.349 173.562C97.7 168.648 66.992 156.003 48.875 176.451C48.875 176.451 60.476 196.378 77.246 196.639C94.016 196.9 90.932 179.341 90.932 179.341Z" fill="#EBEBEB"/>
<path d="M105.963 167.409C105.963 167.409 98.659 170.941 96.612 166.427C94.565 161.914 113.937 134.941 140.129 142.713C140.129 142.713 140.823 165.761 126.728 174.851C112.634 183.942 105.963 167.409 105.963 167.409Z" fill="#EBEBEB"/>
<path d="M67.772 244.103C67.772 244.103 73.339 239.608 67.331 237.414C61.323 235.22 31.844 235.843 31.537 265.045C31.537 265.045 65.871 270.75 70.121 259.627C74.371 248.504 67.772 244.103 67.772 244.103Z" fill="#EBEBEB"/>
<path d="M137.785 178.609C137.785 178.609 132.218 174.114 138.226 171.92C144.234 169.726 173.713 170.349 174.02 199.551C174.02 199.551 139.686 205.257 135.436 194.133C131.186 183.01 137.784 178.609 137.784 178.609H137.785Z" fill="#EBEBEB"/>
<path d="M119.634 202.132C119.634 202.132 119.144 196.668 123.555 198.81C127.966 200.952 143.334 217.531 127.404 233.264C127.404 233.264 105.96 217.382 109.825 209.112C113.69 200.842 119.633 202.133 119.633 202.133L119.634 202.132Z" fill="#EBEBEB"/>
<path d="M62.7949 209.918C62.7949 209.918 66.1229 205.557 61.2499 205.017C56.3759 204.476 34.5339 210.306 39.6209 232.111C39.6209 232.111 66.2299 230.111 67.3699 221.053C68.5109 211.995 62.7949 209.918 62.7949 209.918Z" fill="#EBEBEB"/>
<path d="M131.119 375.023H77.447L63.171 309.174H144.04L131.119 375.023Z" fill="#F0F0F0"/>
<path d="M148.698 308.221H58.302V327.157H148.698V308.221Z" fill="#E6E6E6"/>
<path d="M431.134 47.9541H322.808V186.938H431.134V47.9541Z" fill="#E6E6E6"/>
<path d="M425.819 47.9541H298.572V186.938H425.819V47.9541Z" fill="#F0F0F0"/>
<path d="M413.534 60.2983H310.304V174.592H413.534V60.2983Z" fill="white"/>
<path d="M381.477 96.8169H344.213V138.074H381.477V96.8169Z" fill="#F0F0F0"/>
<path d="M251.099 448.376C374.497 448.376 474.531 442.83 474.531 435.988C474.531 429.146 374.497 423.6 251.099 423.6C127.701 423.6 27.667 429.146 27.667 435.988C27.667 442.83 127.701 448.376 251.099 448.376Z" fill="#F5F5F5"/>
<path d="M385.493 82.4658H116.363V308.632H385.493V82.4658Z" fill="#8B5CF6"/>
<path d="M355.231 113.735H145.685V276.326H355.231V113.735Z" fill="#263238"/>
<path d="M323.225 308.632H183.63V331.212H323.225V308.632Z" fill="#8B5CF6"/>
<path d="M340.417 331.211H166.437V345.472H340.417V331.211Z" fill="#8B5CF6"/>
<path d="M392.092 345.472H108.824V421.554H392.092V345.472Z" fill="#8B5CF6"/>
<path d="M229.795 372.858H117.727V357.543H229.795V372.858ZM118.477 372.108H229.045V358.293H118.477V372.108Z" fill="#263238"/>
<path opacity="0.4" d="M226.372 376.698H213.742C212.059 376.698 210.694 378.062 210.694 379.746V380.171C210.694 381.854 212.059 383.219 213.742 383.219H226.372C228.055 383.219 229.42 381.854 229.42 380.171V379.746C229.42 378.062 228.055 376.698 226.372 376.698Z" fill="black"/>
<path opacity="0.4" d="M202.61 382.925C204.249 382.925 205.577 381.596 205.577 379.958C205.577 378.319 204.249 376.991 202.61 376.991C200.971 376.991 199.643 378.319 199.643 379.958C199.643 381.596 200.971 382.925 202.61 382.925Z" fill="white"/>
<path opacity="0.4" d="M385.066 362.049H295.769V368.353H385.066V362.049Z" fill="black"/>
<path opacity="0.4" d="M385.066 373.72H368.327V379.675H385.066V373.72Z" fill="white"/>
<path opacity="0.4" d="M347.364 405.611C347.364 407.035 346.209 408.19 344.785 408.19C343.361 408.19 342.206 407.035 342.206 405.611C342.206 404.187 343.361 403.032 344.785 403.032C346.209 403.032 347.364 404.187 347.364 405.611Z" fill="black"/>
<path opacity="0.4" d="M354.338 405.611C354.338 407.035 353.183 408.19 351.759 408.19C350.335 408.19 349.18 407.035 349.18 405.611C349.18 404.187 350.335 403.032 351.759 403.032C353.183 403.032 354.338 404.187 354.338 405.611Z" fill="black"/>
<path opacity="0.4" d="M361.312 405.611C361.312 407.035 360.157 408.19 358.733 408.19C357.309 408.19 356.154 407.035 356.154 405.611C356.154 404.187 357.309 403.032 358.733 403.032C360.157 403.032 361.312 404.187 361.312 405.611Z" fill="black"/>
<path opacity="0.4" d="M368.82 399.934C371.955 396.799 377.038 396.799 380.174 399.934C383.309 403.069 383.309 408.153 380.174 411.288C377.039 414.423 371.956 414.423 368.82 411.288C365.685 408.153 365.685 403.07 368.82 399.934Z" fill="black"/>
<path opacity="0.4" d="M340.417 331.211H166.437V345.472H340.417V331.211Z" fill="black"/>
<path opacity="0.4" d="M120.667 397.537H119.917V407.885H120.667V397.537Z" fill="black"/>
<path opacity="0.4" d="M124.355 397.537H123.605V407.885H124.355V397.537Z" fill="black"/>
<path opacity="0.4" d="M128.044 397.537H127.294V407.885H128.044V397.537Z" fill="black"/>
<path opacity="0.4" d="M131.733 397.537H130.983V407.885H131.733V397.537Z" fill="black"/>
<path opacity="0.4" d="M135.421 397.537H134.671V407.885H135.421V397.537Z" fill="black"/>
<path opacity="0.4" d="M139.11 397.537H138.36V407.885H139.11V397.537Z" fill="black"/>
<path opacity="0.4" d="M142.799 397.537H142.049V407.885H142.799V397.537Z" fill="black"/>
<path opacity="0.4" d="M146.487 397.537H145.737V407.885H146.487V397.537Z" fill="black"/>
<path opacity="0.4" d="M150.176 397.537H149.426V407.885H150.176V397.537Z" fill="black"/>
<path opacity="0.4" d="M153.865 397.537H153.115V407.885H153.865V397.537Z" fill="black"/>
<path opacity="0.4" d="M157.553 397.537H156.803V407.885H157.553V397.537Z" fill="black"/>
<path opacity="0.4" d="M161.242 397.537H160.492V407.885H161.242V397.537Z" fill="black"/>
<path opacity="0.4" d="M164.931 397.537H164.181V407.885H164.931V397.537Z" fill="black"/>
<path opacity="0.4" d="M168.62 397.537H167.87V407.885H168.62V397.537Z" fill="black"/>
<path opacity="0.4" d="M172.308 397.537H171.558V407.885H172.308V397.537Z" fill="black"/>
<path opacity="0.4" d="M175.997 397.537H175.247V407.885H175.997V397.537Z" fill="black"/>
<path opacity="0.4" d="M179.686 397.537H178.936V407.885H179.686V397.537Z" fill="black"/>
<path opacity="0.4" d="M183.374 397.537H182.624V407.885H183.374V397.537Z" fill="black"/>
<path opacity="0.4" d="M187.063 397.537H186.313V407.885H187.063V397.537Z" fill="black"/>
<path opacity="0.4" d="M190.751 397.537H190.001V407.885H190.751V397.537Z" fill="black"/>
<path opacity="0.4" d="M194.44 397.537H193.69V407.885H194.44V397.537Z" fill="black"/>
<path opacity="0.4" d="M198.129 397.537H197.379V407.885H198.129V397.537Z" fill="black"/>
<path opacity="0.4" d="M201.817 397.537H201.067V407.885H201.817V397.537Z" fill="black"/>
<path opacity="0.4" d="M205.506 397.537H204.756V407.885H205.506V397.537Z" fill="black"/>
<path opacity="0.4" d="M209.195 397.537H208.445V407.885H209.195V397.537Z" fill="black"/>
<path opacity="0.4" d="M212.884 397.537H212.134V407.885H212.884V397.537Z" fill="black"/>
<path opacity="0.4" d="M216.572 397.537H215.822V407.885H216.572V397.537Z" fill="black"/>
<path opacity="0.4" d="M220.261 397.537H219.511V407.885H220.261V397.537Z" fill="black"/>
<path opacity="0.4" d="M223.95 397.537H223.2V407.885H223.95V397.537Z" fill="black"/>
<path opacity="0.4" d="M227.638 397.537H226.888V407.885H227.638V397.537Z" fill="black"/>
<path opacity="0.4" d="M231.327 397.537H230.577V407.885H231.327V397.537Z" fill="black"/>
<path opacity="0.4" d="M183.63 308.632H323.224V316.241L183.675 315.954L183.63 308.632Z" fill="black"/>
<path opacity="0.4" d="M145.685 276.325L137.786 282.329H363.13L355.231 276.325H145.685Z" fill="black"/>
<path opacity="0.4" d="M355.231 113.735L363.13 106.23H137.786L145.685 113.735H355.231Z" fill="black"/>
<path opacity="0.4" d="M355.231 276.325L363.13 282.329V106.23L355.231 113.735V276.325Z" fill="white"/>
<path opacity="0.4" d="M145.685 276.325L137.786 282.329V106.23L145.685 113.735V276.325Z" fill="white"/>
<path opacity="0.2" d="M153.49 118.853C152.712 120.604 147.846 266.561 153.49 269.48C159.134 272.399 345.009 273.567 348.694 271.815C352.379 270.063 351.667 122.596 346.747 119.283C341.005 115.416 153.489 118.852 153.489 118.852L153.49 118.853Z" fill="white"/>
<path d="M385.438 368.728H295.394V361.866H385.509L385.438 368.728ZM296.144 367.978H384.696L384.752 362.616H296.145L296.144 367.978Z" fill="#263238"/>
<path opacity="0.4" d="M392.092 390.945H108.824V391.695H392.092V390.945Z" fill="black"/>
<path d="M193.142 181.957H165.479V149.031H187.941L193.142 154.454V181.957Z" fill="white"/>
<path d="M193.517 182.332H165.105V148.656H188.102L193.518 154.303V182.332H193.517ZM165.855 181.582H192.767V154.605L187.781 149.406H165.855V181.582Z" fill="black"/>
<path d="M187.751 149.031V154.4L193.142 154.454L187.751 149.031Z" fill="white"/>
<path d="M193.142 154.829H193.138L187.747 154.775C187.541 154.773 187.376 154.606 187.376 154.4V149.03C187.376 148.878 187.468 148.741 187.608 148.683C187.749 148.626 187.91 148.657 188.017 148.766L193.408 154.189C193.515 154.297 193.547 154.459 193.488 154.599C193.429 154.738 193.293 154.829 193.142 154.829ZM188.126 154.029L192.231 154.07L188.126 149.94V154.029Z" fill="black"/>
<path d="M187.554 157.383H171.067V158.133H187.554V157.383Z" fill="black"/>
<path d="M187.554 159.722H171.067V160.472H187.554V159.722Z" fill="black"/>
<path d="M180.702 162.061H171.067V162.811H180.702V162.061Z" fill="black"/>
<path d="M187.554 164.399H171.067V165.149H187.554V164.399Z" fill="black"/>
<path d="M187.554 166.738H171.067V167.488H187.554V166.738Z" fill="black"/>
<path d="M187.554 169.077H171.067V169.827H187.554V169.077Z" fill="black"/>
<path d="M187.554 171.415H171.067V172.165H187.554V171.415Z" fill="black"/>
<path d="M179.311 173.754H171.067V174.504H179.311V173.754Z" fill="black"/>
<path d="M309.6 163.176H281.938V130.249H304.399L309.6 135.672V163.176Z" fill="white"/>
<path d="M309.975 163.55H281.563V129.874H304.56L309.975 135.521V163.55ZM282.313 162.8H309.225V135.823L304.24 130.624H282.313V162.8Z" fill="black"/>
<path d="M304.209 130.249V135.619L309.6 135.672L304.209 130.249Z" fill="white"/>
<path d="M309.6 136.047H309.596L304.205 135.994C304 135.992 303.834 135.825 303.834 135.619V130.249C303.834 130.097 303.926 129.96 304.066 129.902C304.207 129.845 304.369 129.877 304.474 129.985L309.865 135.408C309.972 135.516 310.004 135.678 309.945 135.818C309.886 135.957 309.75 136.047 309.599 136.047H309.6ZM304.584 135.248L308.689 135.289L304.584 131.159V135.248Z" fill="black"/>
<path d="M304.012 138.602H287.525V139.352H304.012V138.602Z" fill="black"/>
<path d="M304.012 140.94H287.525V141.69H304.012V140.94Z" fill="black"/>
<path d="M297.16 143.279H287.525V144.029H297.16V143.279Z" fill="black"/>
<path d="M304.012 145.618H287.525V146.368H304.012V145.618Z" fill="black"/>
<path d="M304.012 147.957H287.525V148.707H304.012V147.957Z" fill="black"/>
<path d="M304.012 150.295H287.525V151.045H304.012V150.295Z" fill="black"/>
<path d="M304.012 152.634H287.525V153.384H304.012V152.634Z" fill="black"/>
<path d="M295.768 154.972H287.525V155.722H295.768V154.972Z" fill="black"/>
<path d="M327.778 242.033H300.116V209.107H322.577L327.778 214.53V242.033Z" fill="white"/>
<path d="M328.153 242.408H299.74V208.732H322.737L328.153 214.379V242.408ZM300.49 241.658H327.403V214.681L322.417 209.482H300.49V241.658Z" fill="black"/>
<path d="M322.387 209.107V214.476L327.778 214.53L322.387 209.107Z" fill="white"/>
<path d="M327.778 214.905H327.774L322.383 214.851C322.178 214.849 322.012 214.682 322.012 214.476V209.106C322.012 208.954 322.104 208.817 322.244 208.759C322.385 208.702 322.546 208.734 322.652 208.842L328.043 214.265C328.15 214.373 328.182 214.535 328.123 214.675C328.064 214.814 327.928 214.904 327.777 214.904L327.778 214.905ZM322.762 214.105L326.867 214.146L322.762 210.016V214.105Z" fill="black"/>
<path d="M322.19 217.459H305.703V218.209H322.19V217.459Z" fill="black"/>
<path d="M322.19 219.797H305.703V220.547H322.19V219.797Z" fill="black"/>
<path d="M315.338 222.137H305.703V222.887H315.338V222.137Z" fill="black"/>
<path d="M322.19 224.476H305.703V225.226H322.19V224.476Z" fill="black"/>
<path d="M322.19 226.813H305.703V227.563H322.19V226.813Z" fill="black"/>
<path d="M322.19 229.152H305.703V229.902H322.19V229.152Z" fill="black"/>
<path d="M322.19 231.492H305.703V232.242H322.19V231.492Z" fill="black"/>
<path d="M313.947 233.83H305.703V234.58H313.947V233.83Z" fill="black"/>
<path d="M341.727 256.877H314.065V223.951H336.527L341.727 229.374V256.877Z" fill="white"/>
<path d="M342.103 257.252H313.691V223.576H336.688L342.103 229.223V257.252ZM314.441 256.502H341.353V229.525L336.368 224.326H314.441V256.502Z" fill="black"/>
<path d="M336.337 223.951V229.32L341.727 229.374L336.337 223.951Z" fill="white"/>
<path d="M341.728 229.749H341.724L336.333 229.695C336.128 229.693 335.962 229.526 335.962 229.32V223.95C335.962 223.798 336.054 223.661 336.194 223.603C336.335 223.546 336.497 223.578 336.602 223.686L341.993 229.109C342.1 229.217 342.132 229.379 342.073 229.519C342.014 229.658 341.878 229.748 341.727 229.748L341.728 229.749ZM336.712 228.949L340.817 228.99L336.712 224.86V228.949Z" fill="black"/>
<path d="M336.139 232.303H319.652V233.053H336.139V232.303Z" fill="black"/>
<path d="M336.139 234.642H319.652V235.392H336.139V234.642Z" fill="black"/>
<path d="M329.287 236.98H319.652V237.73H329.287V236.98Z" fill="black"/>
<path d="M336.139 239.319H319.652V240.069H336.139V239.319Z" fill="black"/>
<path d="M336.139 241.658H319.652V242.408H336.139V241.658Z" fill="black"/>
<path d="M336.139 243.996H319.652V244.746H336.139V243.996Z" fill="black"/>
<path d="M336.139 246.335H319.652V247.085H336.139V246.335Z" fill="black"/>
<path d="M327.896 248.674H319.652V249.424H327.896V248.674Z" fill="black"/>
<path d="M274.343 259.216H246.68V226.289H269.142L274.343 231.712V259.216Z" fill="white"/>
<path d="M274.718 259.591H246.306V225.915H269.303L274.718 231.562V259.591ZM247.056 258.841H273.968V231.863L268.983 226.664H247.056V258.84V258.841Z" fill="black"/>
<path d="M268.952 226.289V231.659L274.343 231.712L268.952 226.289Z" fill="white"/>
<path d="M274.343 232.087H274.339L268.948 232.034C268.743 232.032 268.577 231.865 268.577 231.659V226.289C268.577 226.137 268.669 226 268.809 225.942C268.95 225.885 269.112 225.917 269.217 226.025L274.608 231.448C274.715 231.556 274.747 231.718 274.688 231.858C274.629 231.997 274.494 232.087 274.343 232.087ZM269.327 231.288L273.432 231.329L269.327 227.199V231.288Z" fill="black"/>
<path d="M268.756 234.642H252.268V235.392H268.756V234.642Z" fill="black"/>
<path d="M268.756 236.98H252.268V237.73H268.756V236.98Z" fill="black"/>
<path d="M261.903 239.319H252.268V240.069H261.903V239.319Z" fill="black"/>
<path d="M268.756 241.658H252.268V242.408H268.756V241.658Z" fill="black"/>
<path d="M268.756 243.996H252.268V244.746H268.756V243.996Z" fill="black"/>
<path d="M268.756 246.335H252.268V247.085H268.756V246.335Z" fill="black"/>
<path d="M268.756 248.674H252.268V249.424H268.756V248.674Z" fill="black"/>
<path d="M260.512 251.012H252.268V251.762H260.512V251.012Z" fill="black"/>
<path d="M327.861 168.797H182.797V222.3H327.861V168.797Z" fill="#8B5CF6"/>
<path opacity="0.7" d="M327.861 168.797H182.797V222.3H327.861V168.797Z" fill="white"/>
<path d="M327.861 168.797H182.797V178.725H327.861V168.797Z" fill="#8B5CF6"/>
<path d="M325.602 176.696H317.652V169.657H325.602V176.696ZM318.402 175.946H324.852V170.407H318.402V175.946Z" fill="black"/>
<path d="M323.104 171.163L319.513 174.76L320.044 175.291L323.635 171.693L323.104 171.163Z" fill="black"/>
<path d="M320.035 171.156L319.519 171.702L323.328 175.297L323.843 174.75L320.035 171.156Z" fill="black"/>
<path d="M194.231 196.927H190.778V207.495H194.231V196.927Z" fill="#8B5CF6"/>
<path d="M322.136 209.344H188.522V195.174H322.135L322.136 209.344ZM189.273 208.594H321.386V195.924H189.272L189.273 208.594Z" fill="black"/>
<path d="M200.091 196.927H196.638V207.495H200.091V196.927Z" fill="#8B5CF6"/>
<path d="M205.95 196.927H202.497V207.495H205.95V196.927Z" fill="#8B5CF6"/>
<path d="M211.809 196.927H208.356V207.495H211.809V196.927Z" fill="#8B5CF6"/>
<path d="M217.669 196.927H214.216V207.495H217.669V196.927Z" fill="#8B5CF6"/>
<path d="M223.528 196.927H220.075V207.495H223.528V196.927Z" fill="#8B5CF6"/>
<path d="M229.388 196.927H225.935V207.495H229.388V196.927Z" fill="#8B5CF6"/>
<path d="M235.247 196.927H231.794V207.495H235.247V196.927Z" fill="#8B5CF6"/>
<path d="M241.107 196.927H237.654V207.495H241.107V196.927Z" fill="#8B5CF6"/>
<path d="M246.966 196.927H243.513V207.495H246.966V196.927Z" fill="#8B5CF6"/>
<path d="M252.825 196.927H249.372V207.495H252.825V196.927Z" fill="#8B5CF6"/>
<path d="M258.685 196.927H255.232V207.495H258.685V196.927Z" fill="#8B5CF6"/>
<path d="M319.127 197.676H191.06V198.426H319.127V197.676Z" fill="white"/>
<path opacity="0.3" d="M318.026 176.321V177.046H325.924V170.032H325.227V176.321H318.026Z" fill="black"/>
<path opacity="0.3" d="M190.778 208.969V210.944H323.372V195.549H321.761V208.969H190.778Z" fill="black"/>
<path d="M414.561 421.256H429.134C436.735 421.256 442.906 427.427 442.906 435.028V435.988H400.788V435.028C400.788 427.427 406.959 421.256 414.56 421.256H414.561Z" fill="#8B5CF6"/>
<path opacity="0.2" d="M442.353 434.668H401.434C401.227 434.668 401.059 434.5 401.059 434.293C401.059 434.086 401.227 433.918 401.434 433.918H442.353C442.56 433.918 442.728 434.086 442.728 434.293C442.728 434.5 442.56 434.668 442.353 434.668Z" fill="black"/>
<path d="M66.694 413.89H47.322V420.511H66.694V413.89Z" fill="#8B5CF6"/>
<path opacity="0.4" d="M66.694 413.89H47.322V420.511H66.694V413.89Z" fill="black"/>
<path d="M84.877 413.89H71.376V420.511H84.877V413.89Z" fill="#8B5CF6"/>
<path opacity="0.4" d="M84.877 413.89H71.376V420.511H84.877V413.89Z" fill="black"/>
<path d="M103.117 413.89H89.616V420.511H103.117V413.89Z" fill="#8B5CF6"/>
<path opacity="0.4" d="M103.117 413.89H89.616V420.511H103.117V413.89Z" fill="black"/>
<path d="M121.357 413.89H107.856V420.511H121.357V413.89Z" fill="#8B5CF6"/>
<path opacity="0.4" d="M121.357 413.89H107.856V420.511H121.357V413.89Z" fill="black"/>
<path d="M208.336 413.89H197.962V420.511H208.336V413.89Z" fill="#8B5CF6"/>
<path opacity="0.4" d="M208.336 413.89H197.962V420.511H208.336V413.89Z" fill="black"/>
<path d="M223.686 413.89H213.312V420.511H223.686V413.89Z" fill="#8B5CF6"/>
<path opacity="0.4" d="M223.686 413.89H213.312V420.511H223.686V413.89Z" fill="black"/>
<path d="M239.036 413.89H228.662V420.511H239.036V413.89Z" fill="#8B5CF6"/>
<path opacity="0.4" d="M239.036 413.89H228.662V420.511H239.036V413.89Z" fill="black"/>
<path d="M254.385 413.89H244.011V420.511H254.385V413.89Z" fill="#8B5CF6"/>
<path opacity="0.4" d="M254.385 413.89H244.011V420.511H254.385V413.89Z" fill="black"/>
<path d="M295.977 413.89H285.603V420.511H295.977V413.89Z" fill="#8B5CF6"/>
<path opacity="0.4" d="M295.977 413.89H285.603V420.511H295.977V413.89Z" fill="black"/>
<path d="M311.108 413.89H300.734V420.511H311.108V413.89Z" fill="#8B5CF6"/>
<path opacity="0.4" d="M311.108 413.89H300.734V420.511H311.108V413.89Z" fill="black"/>
<path d="M326.239 413.89H315.865V420.511H326.239V413.89Z" fill="#8B5CF6"/>
<path opacity="0.4" d="M326.239 413.89H315.865V420.511H326.239V413.89Z" fill="black"/>
<path d="M359.052 413.89H330.996V420.511H359.052V413.89Z" fill="#8B5CF6"/>
<path opacity="0.4" d="M359.052 413.89H330.996V420.511H359.052V413.89Z" fill="black"/>
<path d="M279.563 413.89H259.361V420.511H279.563V413.89Z" fill="#8B5CF6"/>
<path opacity="0.4" d="M279.563 413.89H259.361V420.511H279.563V413.89Z" fill="black"/>
<path d="M192.494 413.89H126.096V420.511H192.494V413.89Z" fill="#8B5CF6"/>
<path opacity="0.4" d="M192.494 413.89H126.096V420.511H192.494V413.89Z" fill="black"/>
<path d="M364.395 419.257H42.177V432.959H364.395V419.257Z" fill="#8B5CF6"/>
<path opacity="0.3" d="M364.395 419.257H42.177V432.959H364.395V419.257Z" fill="black"/>
<path opacity="0.2" d="M363.658 428.247H43.278V428.997H363.658V428.247Z" fill="black"/>
</g>
<defs>
<clipPath id="clip0_2_1227">
<rect width="500" height="500" fill="white" transform="translate(0.5)"/>
</clipPath>
</defs>
</svg>
