<svg width="501" height="500" viewBox="0 0 501 500" fill="none" xmlns="http://www.w3.org/2000/svg">
<path d="M36.0101 210.88C36.0101 210.88 27.7201 290.88 86.8101 357.21C145.9 423.54 237.29 445.76 311.01 465.73C384.73 485.7 447.63 455 464.95 393C482.27 331 427.95 300.9 407.03 222.18C386.11 143.46 392.09 120.18 332.91 62.4599C273.73 4.73989 167.91 11.6499 103.91 77.3299C39.9101 143.01 36.0101 210.88 36.0101 210.88Z" fill="#8B5CF6"/>
<path opacity="0.7" d="M36.0101 210.88C36.0101 210.88 27.7201 290.88 86.8101 357.21C145.9 423.54 237.29 445.76 311.01 465.73C384.73 485.7 447.63 455 464.95 393C482.27 331 427.95 300.9 407.03 222.18C386.11 143.46 392.09 120.18 332.91 62.4599C273.73 4.73989 167.91 11.6499 103.91 77.3299C39.9101 143.01 36.0101 210.88 36.0101 210.88Z" fill="white"/>
<path d="M330.21 81.0701H170.16C162.141 81.0701 155.64 87.5709 155.64 95.5901V435.55C155.64 443.569 162.141 450.07 170.16 450.07H330.21C338.229 450.07 344.73 443.569 344.73 435.55V95.5901C344.73 87.5709 338.229 81.0701 330.21 81.0701Z" fill="#263238"/>
<mask id="mask0_2_1812" style="mask-type:luminance" maskUnits="userSpaceOnUse" x="155" y="81" width="190" height="370">
<path d="M330.21 81.0701H170.16C162.141 81.0701 155.64 87.5709 155.64 95.5901V435.55C155.64 443.569 162.141 450.07 170.16 450.07H330.21C338.229 450.07 344.73 443.569 344.73 435.55V95.5901C344.73 87.5709 338.229 81.0701 330.21 81.0701Z" fill="white"/>
</mask>
<g mask="url(#mask0_2_1812)">
<path opacity="0.2" d="M171.93 81.0701C169.79 81.0701 167.671 81.4918 165.694 82.311C163.717 83.1303 161.921 84.3311 160.408 85.8448C158.895 87.3586 157.695 89.1555 156.877 91.1331C156.059 93.1106 155.639 95.23 155.64 97.3701V433.77C155.637 436.154 156.158 438.51 157.168 440.671C158.177 442.831 159.649 444.743 161.48 446.27L271.8 81.0701H171.93Z" fill="white"/>
<path d="M256.6 439.4C256.6 438.128 256.223 436.884 255.516 435.827C254.809 434.769 253.804 433.945 252.628 433.458C251.453 432.972 250.16 432.845 248.912 433.094C247.664 433.343 246.519 433.957 245.62 434.857C244.721 435.757 244.109 436.904 243.862 438.152C243.615 439.4 243.744 440.693 244.232 441.868C244.721 443.042 245.546 444.046 246.605 444.751C247.664 445.457 248.908 445.832 250.18 445.83C251.024 445.831 251.861 445.666 252.641 445.343C253.421 445.02 254.13 444.546 254.726 443.949C255.323 443.352 255.795 442.642 256.117 441.861C256.438 441.081 256.603 440.244 256.6 439.4Z" stroke="white" stroke-linecap="round" stroke-linejoin="round"/>
</g>
<path d="M330.21 81.0701H170.16C162.141 81.0701 155.64 87.5709 155.64 95.5901V435.55C155.64 443.569 162.141 450.07 170.16 450.07H330.21C338.229 450.07 344.73 443.569 344.73 435.55V95.5901C344.73 87.5709 338.229 81.0701 330.21 81.0701Z" stroke="#263238" stroke-linecap="round" stroke-linejoin="round"/>
<path d="M336.31 106.13H164.04V428.17H336.31V106.13Z" fill="white" stroke="#263238" stroke-linecap="round" stroke-linejoin="round"/>
<path d="M330.45 109.47H316.17V117.3H330.45V109.47Z" stroke="#263238" stroke-width="0.821067" stroke-linecap="round" stroke-linejoin="round"/>
<path d="M327.31 109.47H316.17V117.3H327.31V109.47Z" fill="#263238" stroke="#263238" stroke-width="0.725073" stroke-linecap="round" stroke-linejoin="round"/>
<path d="M332.43 111.66H330.42V115.11H332.43V111.66Z" fill="#263238" stroke="#263238" stroke-width="0.725073" stroke-linecap="round" stroke-linejoin="round"/>
<path d="M170.54 111.9H167.92V116.39H170.54V111.9Z" fill="#263238" stroke="#263238" stroke-width="0.883086" stroke-linecap="round" stroke-linejoin="round"/>
<path d="M174.66 110.32H172.04V116.39H174.66V110.32Z" fill="#263238" stroke="#263238" stroke-width="0.883086" stroke-linecap="round" stroke-linejoin="round"/>
<path d="M178.77 108.46H176.15V116.39H178.77V108.46Z" fill="#263238" stroke="#263238" stroke-width="0.883086" stroke-linecap="round" stroke-linejoin="round"/>
<path d="M332.24 121.66H166.82V134.1H332.24V121.66Z" fill="#8B5CF6"/>
<path d="M322.34 298.71H271.5C269.834 298.71 268.237 299.372 267.059 300.549C265.882 301.727 265.22 303.324 265.22 304.99V311.23L252.66 316.88L265.22 320.25V324.15C265.22 325.815 265.882 327.413 267.059 328.591C268.237 329.768 269.834 330.43 271.5 330.43H322.39C324.056 330.43 325.653 329.768 326.831 328.591C328.008 327.413 328.67 325.815 328.67 324.15V305C328.671 304.17 328.508 303.348 328.19 302.582C327.872 301.816 327.405 301.12 326.816 300.535C326.228 299.95 325.529 299.488 324.761 299.174C323.993 298.861 323.17 298.703 322.34 298.71Z" fill="white" stroke="#263238" stroke-miterlimit="10"/>
<path d="M288.02 315.08C288.02 315.604 287.864 316.117 287.573 316.553C287.281 316.989 286.867 317.329 286.382 317.529C285.897 317.729 285.364 317.781 284.849 317.678C284.335 317.575 283.863 317.322 283.493 316.95C283.122 316.579 282.871 316.105 282.77 315.591C282.669 315.076 282.722 314.543 282.925 314.059C283.127 313.575 283.468 313.162 283.905 312.872C284.342 312.582 284.855 312.428 285.38 312.43C285.728 312.43 286.072 312.499 286.393 312.632C286.714 312.765 287.005 312.961 287.25 313.207C287.496 313.453 287.69 313.745 287.822 314.067C287.954 314.388 288.021 314.732 288.02 315.08Z" fill="#263238"/>
<path d="M299.58 315.08C299.578 315.602 299.421 316.111 299.13 316.544C298.839 316.977 298.426 317.314 297.943 317.512C297.461 317.71 296.93 317.761 296.419 317.658C295.907 317.555 295.438 317.303 295.07 316.933C294.702 316.564 294.451 316.093 294.35 315.581C294.249 315.069 294.302 314.539 294.502 314.057C294.702 313.576 295.04 313.164 295.474 312.874C295.908 312.585 296.418 312.43 296.94 312.43C297.288 312.43 297.632 312.499 297.953 312.632C298.274 312.765 298.565 312.96 298.81 313.207C299.056 313.453 299.25 313.745 299.382 314.067C299.514 314.388 299.581 314.732 299.58 315.08Z" fill="#263238"/>
<path d="M311.15 315.08C311.15 315.604 310.995 316.116 310.703 316.552C310.412 316.988 309.998 317.328 309.514 317.528C309.03 317.729 308.497 317.781 307.983 317.679C307.469 317.577 306.997 317.324 306.626 316.954C306.256 316.583 306.003 316.111 305.901 315.597C305.799 315.083 305.851 314.55 306.052 314.066C306.252 313.582 306.592 313.168 307.028 312.877C307.464 312.585 307.976 312.43 308.5 312.43C309.203 312.43 309.877 312.709 310.374 313.206C310.871 313.703 311.15 314.377 311.15 315.08Z" fill="#263238"/>
<path d="M322.34 148.71H271.5C269.836 148.71 268.24 149.37 267.063 150.546C265.885 151.721 265.223 153.316 265.22 154.98V161.23L252.66 166.88L265.22 170.25V174.15C265.22 175.815 265.882 177.413 267.059 178.591C268.237 179.768 269.834 180.43 271.5 180.43H322.39C324.056 180.43 325.653 179.768 326.831 178.591C328.008 177.413 328.67 175.815 328.67 174.15V155C328.671 154.17 328.508 153.348 328.19 152.582C327.872 151.816 327.405 151.12 326.816 150.535C326.228 149.95 325.529 149.488 324.761 149.174C323.993 148.861 323.17 148.703 322.34 148.71Z" fill="white" stroke="#263238" stroke-miterlimit="10"/>
<path d="M288.02 165.08C288.02 165.605 287.864 166.117 287.573 166.553C287.281 166.989 286.867 167.329 286.382 167.529C285.897 167.729 285.364 167.781 284.849 167.678C284.335 167.575 283.863 167.322 283.493 166.95C283.122 166.579 282.871 166.106 282.77 165.591C282.669 165.076 282.722 164.543 282.925 164.059C283.127 163.575 283.468 163.162 283.905 162.872C284.342 162.582 284.855 162.428 285.38 162.43C285.728 162.43 286.072 162.499 286.393 162.632C286.714 162.765 287.005 162.961 287.25 163.207C287.496 163.453 287.69 163.745 287.822 164.067C287.954 164.388 288.021 164.732 288.02 165.08Z" fill="#263238"/>
<path d="M299.58 165.08C299.578 165.602 299.421 166.111 299.13 166.544C298.839 166.977 298.426 167.314 297.943 167.512C297.461 167.71 296.93 167.761 296.419 167.658C295.907 167.555 295.438 167.303 295.07 166.933C294.702 166.564 294.451 166.093 294.35 165.581C294.249 165.069 294.302 164.539 294.502 164.057C294.702 163.576 295.04 163.164 295.474 162.874C295.908 162.585 296.418 162.43 296.94 162.43C297.288 162.43 297.632 162.499 297.953 162.632C298.274 162.765 298.565 162.961 298.81 163.207C299.056 163.453 299.25 163.745 299.382 164.067C299.514 164.388 299.581 164.732 299.58 165.08Z" fill="#263238"/>
<path d="M311.15 165.08C311.15 165.604 310.995 166.116 310.703 166.552C310.412 166.988 309.998 167.328 309.514 167.528C309.03 167.729 308.497 167.781 307.983 167.679C307.469 167.577 306.997 167.324 306.626 166.954C306.256 166.583 306.003 166.111 305.901 165.597C305.799 165.083 305.851 164.55 306.052 164.066C306.252 163.582 306.592 163.168 307.028 162.877C307.464 162.585 307.976 162.43 308.5 162.43C309.203 162.43 309.877 162.709 310.374 163.206C310.871 163.703 311.15 164.377 311.15 165.08Z" fill="#263238"/>
<path d="M178.89 380H229.78C231.446 380 233.043 380.662 234.221 381.839C235.398 383.017 236.06 384.614 236.06 386.28V392.52L248.62 398.17L236.06 401.54V405.44C236.06 407.106 235.398 408.703 234.221 409.881C233.043 411.058 231.446 411.72 229.78 411.72H178.89C177.224 411.72 175.627 411.058 174.449 409.881C173.272 408.703 172.61 407.106 172.61 405.44V386.32C172.605 385.492 172.763 384.671 173.076 383.904C173.39 383.138 173.851 382.441 174.435 381.853C175.019 381.266 175.713 380.8 176.477 380.482C177.242 380.164 178.062 380 178.89 380Z" fill="white" stroke="#263238" stroke-miterlimit="10"/>
<path d="M213.21 396.41C213.208 396.935 213.362 397.449 213.652 397.886C213.943 398.323 214.357 398.664 214.841 398.866C215.326 399.068 215.86 399.121 216.375 399.019C216.889 398.917 217.363 398.665 217.734 398.294C218.105 397.922 218.358 397.449 218.46 396.934C218.561 396.419 218.508 395.886 218.306 395.401C218.105 394.916 217.763 394.503 217.326 394.212C216.889 393.922 216.375 393.768 215.85 393.77C215.15 393.77 214.478 394.048 213.983 394.543C213.488 395.038 213.21 395.71 213.21 396.41Z" fill="#263238"/>
<path d="M201.65 396.41C201.65 396.932 201.805 397.443 202.095 397.877C202.385 398.311 202.797 398.649 203.28 398.849C203.762 399.049 204.293 399.101 204.805 398.999C205.317 398.897 205.788 398.646 206.157 398.277C206.526 397.908 206.777 397.437 206.879 396.925C206.981 396.413 206.929 395.882 206.729 395.4C206.529 394.917 206.191 394.505 205.757 394.215C205.323 393.925 204.812 393.77 204.29 393.77C203.59 393.77 202.918 394.048 202.423 394.543C201.928 395.038 201.65 395.71 201.65 396.41Z" fill="#263238"/>
<path d="M190.08 396.41C190.078 396.935 190.232 397.448 190.522 397.885C190.812 398.322 191.225 398.663 191.709 398.865C192.193 399.068 192.726 399.121 193.241 399.02C193.756 398.919 194.229 398.668 194.6 398.297C194.972 397.927 195.225 397.455 195.328 396.941C195.431 396.426 195.379 395.893 195.179 395.408C194.979 394.923 194.639 394.509 194.203 394.217C193.767 393.926 193.255 393.77 192.73 393.77C192.029 393.77 191.356 394.048 190.86 394.543C190.363 395.037 190.083 395.709 190.08 396.41Z" fill="#263238"/>
<path d="M178.89 228H229.78C231.446 228 233.043 228.662 234.221 229.839C235.398 231.017 236.06 232.614 236.06 234.28V240.52L248.62 246.17L236.06 249.54V253.44C236.06 255.106 235.398 256.703 234.221 257.881C233.043 259.058 231.446 259.72 229.78 259.72H178.89C177.224 259.72 175.627 259.058 174.449 257.881C173.272 256.703 172.61 255.106 172.61 253.44V234.27C172.613 232.606 173.275 231.011 174.453 229.836C175.63 228.66 177.226 228 178.89 228Z" fill="white" stroke="#263238" stroke-miterlimit="10"/>
<path d="M213.21 244.36C213.21 244.885 213.366 245.397 213.657 245.833C213.949 246.269 214.363 246.609 214.848 246.809C215.333 247.009 215.866 247.061 216.381 246.958C216.895 246.855 217.367 246.602 217.737 246.23C218.108 245.859 218.359 245.386 218.46 244.871C218.561 244.356 218.507 243.823 218.305 243.339C218.103 242.855 217.762 242.442 217.325 242.152C216.888 241.862 216.375 241.708 215.85 241.71C215.502 241.71 215.158 241.779 214.837 241.912C214.516 242.045 214.225 242.241 213.98 242.487C213.734 242.733 213.54 243.025 213.408 243.347C213.276 243.668 213.209 244.012 213.21 244.36Z" fill="#263238"/>
<path d="M201.65 244.36C201.652 244.882 201.808 245.391 202.1 245.824C202.391 246.257 202.804 246.594 203.287 246.792C203.769 246.99 204.3 247.041 204.811 246.938C205.323 246.835 205.792 246.583 206.16 246.213C206.528 245.844 206.779 245.373 206.88 244.861C206.981 244.349 206.928 243.819 206.728 243.337C206.528 242.856 206.19 242.444 205.756 242.154C205.322 241.865 204.812 241.71 204.29 241.71C203.942 241.71 203.598 241.779 203.277 241.912C202.956 242.045 202.665 242.241 202.42 242.487C202.174 242.733 201.98 243.025 201.848 243.347C201.716 243.668 201.649 244.012 201.65 244.36Z" fill="#263238"/>
<path d="M190.08 244.36C190.08 244.884 190.235 245.396 190.527 245.832C190.818 246.268 191.232 246.608 191.716 246.808C192.2 247.009 192.733 247.061 193.247 246.959C193.761 246.857 194.233 246.604 194.604 246.234C194.974 245.863 195.227 245.391 195.329 244.877C195.431 244.363 195.379 243.83 195.178 243.346C194.978 242.862 194.638 242.448 194.202 242.157C193.766 241.865 193.254 241.71 192.73 241.71C192.027 241.71 191.353 241.989 190.856 242.486C190.359 242.983 190.08 243.657 190.08 244.36Z" fill="#263238"/>
<path d="M252.96 223.89C251.78 218.68 247.22 199.1 244.37 195.26C241.08 190.82 222.04 180.51 219.32 178.65C216.6 176.79 212.45 175.36 211.16 175.36C211.16 175.36 200.71 178.94 190.41 181.66C180.11 184.38 174.41 186.24 173.23 189.66C172.23 192.66 167.66 217.88 166.59 223.87L252.96 223.89Z" fill="#616161" stroke="#263238" stroke-linecap="round" stroke-linejoin="round"/>
<path d="M190.5 222.1C190.067 214.627 189.643 207.16 189.23 199.7" stroke="#263238" stroke-linecap="round" stroke-linejoin="round"/>
<path d="M218.89 198.26C223.76 197.55 226.48 188.67 227.2 184.95C227.3 184.41 227.4 183.95 227.49 183.5C223.61 181.21 220.33 179.35 219.32 178.65C216.6 176.79 212.45 175.36 211.16 175.36C211.16 175.36 207.35 176.67 202.06 178.3C202.77 179.92 204.58 183.92 207.3 189.25C210.88 196.26 214.03 199 218.89 198.26Z" fill="white" stroke="#263238" stroke-linecap="round" stroke-linejoin="round"/>
<path d="M208.01 162.33C208.01 162.33 206.58 177.08 206.44 177.94C206.3 178.8 208.3 184.52 211.74 189.82C215.18 195.12 219.74 194.69 222.04 190.1C223.759 186.266 225.148 182.291 226.19 178.22C223.965 177.742 221.874 176.777 220.067 175.393C218.26 174.01 216.782 172.243 215.74 170.22C212.31 163.34 209.44 160.33 208.01 162.33Z" fill="#B2B2B2" stroke="#263238" stroke-linecap="round" stroke-linejoin="round"/>
<path d="M217.89 127.26C217.89 127.26 208.73 129.98 205.44 137.14C202.76 142.96 204.29 152.03 205.44 155.03C206.59 158.03 207.01 163.91 209.16 169.21C211.31 174.51 217.03 181.21 221.9 182.21C226.77 183.21 236.36 175.48 238.9 171.91C241.44 168.34 240.62 162.17 240.9 161.17C241.18 160.17 244.9 153.01 244.48 144.17C244.06 135.33 231.78 124.83 217.89 127.26Z" fill="#B2B2B2" stroke="#263238" stroke-linecap="round" stroke-linejoin="round"/>
<path d="M235.5 160.19C235.5 160.19 236.79 168.49 234.78 169.35C232.77 170.21 228.91 168.92 228.34 167.77" stroke="#263238" stroke-linecap="round" stroke-linejoin="round"/>
<path d="M227.2 172.21C224.983 171.175 223.061 169.6 221.61 167.63C221.61 167.63 218.46 172.35 221.9 173.63C222.815 174.018 223.834 174.089 224.794 173.832C225.754 173.574 226.601 173.004 227.2 172.21Z" fill="#263238" stroke="#263238" stroke-linecap="round" stroke-linejoin="round"/>
<path d="M228.87 159.93C228.52 161.06 227.78 161.84 227.21 161.67C226.64 161.5 226.47 160.44 226.81 159.3C227.15 158.16 227.9 157.39 228.46 157.56C229.02 157.73 229.21 158.79 228.87 159.93Z" fill="#263238"/>
<path d="M238.89 161.5C238.54 162.64 237.8 163.42 237.23 163.24C236.66 163.06 236.49 162.01 236.83 160.88C237.17 159.75 237.92 158.96 238.49 159.13C239.06 159.3 239.23 160.37 238.89 161.5Z" fill="#263238"/>
<path d="M231.78 154.83C231.542 154.833 231.313 154.743 231.14 154.58C228.47 152.02 225.48 154.38 225.35 154.48C225.256 154.556 225.148 154.613 225.032 154.648C224.916 154.682 224.795 154.693 224.675 154.681C224.554 154.668 224.438 154.632 224.331 154.575C224.225 154.517 224.131 154.439 224.055 154.345C223.979 154.251 223.922 154.143 223.887 154.027C223.853 153.912 223.842 153.79 223.854 153.67C223.867 153.549 223.903 153.433 223.96 153.327C224.018 153.22 224.096 153.126 224.19 153.05C225.345 152.063 226.823 151.537 228.341 151.572C229.86 151.607 231.312 152.201 232.42 153.24C232.593 153.414 232.69 153.65 232.69 153.895C232.69 154.141 232.593 154.376 232.42 154.55C232.337 154.637 232.238 154.706 232.128 154.754C232.018 154.802 231.9 154.828 231.78 154.83Z" fill="#263238"/>
<path d="M242.37 158C242.215 157.999 242.063 157.961 241.927 157.888C241.791 157.814 241.675 157.709 241.59 157.58C241.407 157.216 241.147 156.897 240.827 156.644C240.508 156.392 240.136 156.213 239.74 156.12C239.046 156.091 238.366 156.319 237.83 156.76C237.74 156.841 237.635 156.903 237.521 156.943C237.407 156.983 237.286 157.001 237.166 156.994C237.045 156.988 236.927 156.958 236.817 156.905C236.708 156.853 236.611 156.78 236.53 156.69C236.449 156.6 236.387 156.495 236.347 156.381C236.307 156.267 236.289 156.146 236.296 156.025C236.302 155.905 236.332 155.787 236.385 155.677C236.437 155.568 236.51 155.471 236.6 155.39C237.062 154.988 237.601 154.684 238.183 154.495C238.766 154.306 239.38 154.236 239.99 154.29C240.655 154.409 241.285 154.677 241.832 155.074C242.379 155.47 242.83 155.985 243.15 156.58C243.24 156.719 243.291 156.881 243.297 157.047C243.303 157.213 243.264 157.377 243.184 157.523C243.104 157.669 242.986 157.79 242.843 157.874C242.7 157.958 242.536 158.001 242.37 158Z" fill="#263238"/>
<path d="M205.68 155.76C205.74 155.94 205.79 156.12 205.84 156.31V156.43C205.9 156.63 205.95 156.84 206 157.05V157.11C206 157.35 206.11 157.59 206.16 157.84L210.68 156.84C210.68 156.84 214.83 157.7 215.41 156.27C215.99 154.84 213.26 152.69 215.26 150.55C217.26 148.41 222.85 149.83 223.42 147.11C223.99 144.39 225.42 134.66 237.02 137.66C239.385 138.43 241.653 139.471 243.78 140.76C240.96 132.84 230 125.08 217.84 127.21C217.84 127.21 208.68 129.93 205.39 137.09C202.71 142.91 204.24 151.98 205.39 154.98C205.46 155.17 205.53 155.38 205.6 155.59L205.68 155.76Z" fill="#263238" stroke="#263238" stroke-linecap="round" stroke-linejoin="round"/>
<path d="M212.74 159.33C212.74 159.33 211.45 153.75 208.01 153.17C204.57 152.59 203.29 156.75 204.01 160.47C204.73 164.19 208.44 167.63 211.74 166.63" fill="#B2B2B2"/>
<path d="M212.74 159.33C212.74 159.33 211.45 153.75 208.01 153.17C204.57 152.59 203.29 156.75 204.01 160.47C204.73 164.19 208.44 167.63 211.74 166.63" stroke="#263238" stroke-linecap="round" stroke-linejoin="round"/>
<path d="M224.08 223.89C226.69 221.05 232.76 214.46 233.21 214.01C233.66 213.56 234.64 213.44 237.93 212.58C241.22 211.72 246.66 209.86 247.52 209.14C248.81 208.317 249.969 207.306 250.96 206.14C251.659 204.989 252.28 203.793 252.82 202.56C253.25 201.84 256.68 200.27 257.54 199.56C258.4 198.85 259.26 197.42 258.97 196.7C258.68 195.98 253.68 197.42 249.1 198.42C246.649 198.986 244.158 199.367 241.65 199.56C241.65 199.56 244.23 195.84 245.8 194.12C247.37 192.4 246.8 188.68 245.66 190.12C244.52 191.56 237.22 199 235.66 199.57C234.1 200.14 230.51 205.44 228.07 207.88C226.07 209.88 209.81 220.41 204.37 223.88L224.08 223.89Z" fill="#B2B2B2" stroke="#263238" stroke-linecap="round" stroke-linejoin="round"/>
<path d="M252.82 202.56L247.95 204.28" stroke="#263238" stroke-linecap="round" stroke-linejoin="round"/>
<path d="M333.44 223.89H169.41" stroke="#263238" stroke-linecap="round" stroke-linejoin="round"/>
<path d="M333.05 296.77C332.55 292.96 330.42 278.03 327.28 271.17C325.771 267.832 323.571 264.853 320.825 262.429C318.079 260.005 314.849 258.192 311.35 257.11C305.6 255.37 298.1 253.9 294.35 254.43C294.35 254.43 281.9 258.72 276.55 259.92C271.2 261.12 265.65 264.87 263.37 268.09C261.37 270.95 250.89 292.14 248.62 296.77H333.05Z" fill="white" stroke="#263238" stroke-linecap="round" stroke-linejoin="round"/>
<path d="M333.05 296.77C332.55 292.96 330.42 278.03 327.28 271.17C325.771 267.832 323.571 264.853 320.825 262.429C318.079 260.005 314.849 258.192 311.35 257.11C305.6 255.37 298.1 253.9 294.35 254.43C294.35 254.43 285.82 257.37 279.84 259.06C277.97 261.98 273.77 268.46 269.84 273.98C264.84 280.98 262.84 291.1 265.55 296.77H333.05Z" fill="#8B5CF6" stroke="#263238" stroke-linecap="round" stroke-linejoin="round"/>
<path d="M286.32 246.67C287.543 251.342 287.996 256.182 287.66 261C287.12 269.17 282.84 274.39 284.45 278.54C286.06 282.69 292.45 284.29 298.1 279.88C303.75 275.47 304.79 264.62 304.93 259.8C305.07 254.98 307.34 240 307.34 240C307.34 240 301.34 247.09 294.34 247.36C287.34 247.63 286.32 246.67 286.32 246.67Z" fill="white" stroke="#263238" stroke-linecap="round" stroke-linejoin="round"/>
<path d="M287.79 208.39C287.79 208.39 278.79 209.99 274.68 217.89C270.68 225.46 272.58 238.19 276.53 245.73C281.53 255.25 281.23 258.51 281.28 266.92C281.328 267.488 281.259 268.06 281.076 268.6C280.894 269.14 280.602 269.637 280.22 270.06C278.16 272.06 277.89 269.06 277.35 270.76C276.81 272.46 282.35 276.22 288.06 271.25C291.76 268.02 292.61 258.99 290.87 253.76C289.13 248.53 280.43 237.7 282.31 229.27C284.19 220.84 290.74 213.88 291.31 210.66C291.88 207.44 287.79 208.39 287.79 208.39Z" fill="#263238"/>
<mask id="mask1_2_1812" style="mask-type:luminance" maskUnits="userSpaceOnUse" x="272" y="208" width="20" height="66">
<path d="M287.79 208.39C287.79 208.39 278.79 209.99 274.68 217.89C270.68 225.46 272.58 238.19 276.53 245.73C281.53 255.25 281.23 258.51 281.28 266.92C281.328 267.488 281.259 268.06 281.076 268.6C280.894 269.14 280.602 269.637 280.22 270.06C278.16 272.06 277.89 269.06 277.35 270.76C276.81 272.46 282.35 276.22 288.06 271.25C291.76 268.02 292.61 258.99 290.87 253.76C289.13 248.53 280.43 237.7 282.31 229.27C284.19 220.84 290.74 213.88 291.31 210.66C291.88 207.44 287.79 208.39 287.79 208.39Z" fill="white"/>
</mask>
<g mask="url(#mask1_2_1812)">
<path d="M288.17 213.29C288.17 213.29 272.61 222.62 275.04 237.06C277.47 251.5 293.04 255.72 291.57 270.6" stroke="#636363" stroke-linecap="round" stroke-linejoin="round"/>
</g>
<path d="M287.79 208.39C287.79 208.39 278.79 209.99 274.68 217.89C270.68 225.46 272.58 238.19 276.53 245.73C281.53 255.25 281.23 258.51 281.28 266.92C281.328 267.488 281.259 268.06 281.076 268.6C280.894 269.14 280.602 269.637 280.22 270.06C278.16 272.06 277.89 269.06 277.35 270.76C276.81 272.46 282.35 276.22 288.06 271.25C291.76 268.02 292.61 258.99 290.87 253.76C289.13 248.53 280.43 237.7 282.31 229.27C284.19 220.84 290.74 213.88 291.31 210.66C291.88 207.44 287.79 208.39 287.79 208.39Z" stroke="#263238" stroke-linecap="round" stroke-linejoin="round"/>
<path d="M312.71 296.77H333.05V296.58V296.43V296.21V296V295.91V295.71V295.65V295.39V295.12V295.05V294.81V294.7C333.055 294.61 333.055 294.52 333.05 294.43V294.36C333.05 294.26 333.05 294.16 333.05 294.06V293.99C333.05 293.89 333.05 293.8 333.05 293.71V293.58C333.05 293.49 333.05 293.4 333.05 293.3V293.2L332.99 292.84L332.93 292.48V292.4L332.87 292.01C332.87 291.86 332.82 291.71 332.8 291.56C332.73 291.1 332.65 290.62 332.57 290.13C332.57 289.98 332.57 289.83 332.49 289.68V289.63C332.49 289.48 332.44 289.33 332.41 289.18V289.11C332.41 288.97 332.36 288.83 332.33 288.68V288.57C332.33 288.44 332.33 288.31 332.26 288.18V288.02L332.2 287.67V287.49L332.14 287.15V286.98C332.14 286.86 332.09 286.74 332.07 286.62V286.45C332.07 286.33 332.02 286.21 332 286.09V285.91C332 285.79 332 285.68 331.93 285.56V285.38C331.93 285.26 331.93 285.14 331.86 285.02V284.83C331.86 284.72 331.81 284.6 331.79 284.48V284.29C331.79 284.17 331.74 284.06 331.71 283.94V283.75C331.71 283.63 331.71 283.51 331.63 283.39C331.635 283.33 331.635 283.27 331.63 283.21C331.63 283.09 331.58 282.96 331.56 282.84V282.66L330.5 282V281.85C330.5 281.71 330.44 281.56 330.4 281.41V281.31L330.28 280.79C330.2 280.43 330.11 280.07 330.02 279.71V279.63C330.02 279.48 329.95 279.33 329.92 279.18V279.02L329.83 278.66C329.81 278.598 329.793 278.534 329.78 278.47L329.69 278.13C329.69 278.07 329.69 278 329.64 277.94C329.59 277.88 329.59 277.73 329.56 277.62L329.5 277.41C329.5 277.31 329.45 277.21 329.42 277.11L329.36 276.9L329.28 276.61L329.22 276.39C329.22 276.3 329.17 276.21 329.14 276.11L329.08 275.9C329.049 275.812 329.022 275.722 329 275.63C329 275.55 328.95 275.48 328.93 275.41C328.91 275.34 328.93 275.23 328.85 275.15C328.77 275.07 328.85 275.01 328.78 274.93C328.758 274.845 328.731 274.762 328.7 274.68C328.681 274.609 328.658 274.539 328.63 274.47C328.608 274.382 328.581 274.295 328.55 274.21C328.55 274.15 328.55 274.08 328.48 274.01C328.41 273.94 328.43 273.84 328.4 273.76C328.37 273.68 328.35 273.63 328.33 273.56L328.24 273.32C328.221 273.255 328.198 273.192 328.17 273.13C328.148 273.049 328.121 272.969 328.09 272.89C328.062 272.832 328.039 272.772 328.02 272.71L327.93 272.47C327.93 272.41 327.93 272.35 327.86 272.3L327.76 272.06L327.7 271.9C327.7 271.81 327.63 271.73 327.59 271.65C327.569 271.605 327.552 271.558 327.54 271.51L327.37 271.15C325.929 267.995 323.871 265.16 321.317 262.812C318.763 260.464 315.765 258.652 312.5 257.48C311.61 260.59 309.37 269.29 309.91 276.48C310.39 283.32 311.97 292.64 312.71 296.77Z" fill="white" stroke="#263238" stroke-linecap="round" stroke-linejoin="round"/>
<path d="M289 208.92C289 208.92 283.91 212.8 282.31 217.09C280.71 221.38 279.36 232.21 279.63 236.5C279.9 240.79 285.38 248.28 287.63 250.15C289.88 252.02 299.63 249.88 304.23 245.6C307.41 242.6 310.12 232.35 307.98 222.31C305.84 212.27 295.56 206.51 289 208.92Z" fill="white" stroke="#263238" stroke-linecap="round" stroke-linejoin="round"/>
<path d="M293.42 228.47C293.42 228.47 296.36 225.39 301.31 227.93" stroke="#263238" stroke-linecap="round" stroke-linejoin="round"/>
<path d="M286.19 226.73C285.961 225.777 285.48 224.903 284.798 224.199C284.115 223.495 283.256 222.988 282.31 222.73" stroke="#263238" stroke-linecap="round" stroke-linejoin="round"/>
<path d="M288.6 225.39C288.6 225.39 288.33 227.93 287.39 228.87C286.45 229.81 284.45 230.74 285.25 232.62C286.05 234.5 288.46 234.89 289.53 233.82" stroke="#263238" stroke-linecap="round" stroke-linejoin="round"/>
<path d="M282.57 220.17C282.57 220.17 284.85 217.36 288.57 220.17" stroke="#263238" stroke-linecap="round" stroke-linejoin="round"/>
<path d="M292.75 221.51C292.75 221.51 297.16 218.83 300.64 223.78" stroke="#263238" stroke-linecap="round" stroke-linejoin="round"/>
<path d="M284.98 236.9C284.98 236.9 286.86 239.44 291.98 238.77C297.1 238.1 298.27 235.96 298.27 235.96" stroke="#263238" stroke-linecap="round" stroke-linejoin="round"/>
<path d="M297.16 228.4C297.16 228.651 297.085 228.897 296.946 229.106C296.806 229.315 296.608 229.477 296.376 229.573C296.144 229.67 295.889 229.695 295.642 229.646C295.396 229.597 295.17 229.476 294.992 229.298C294.814 229.121 294.693 228.894 294.644 228.648C294.595 228.402 294.621 228.146 294.717 227.914C294.813 227.682 294.976 227.484 295.184 227.344C295.393 227.205 295.639 227.13 295.89 227.13C296.227 227.13 296.55 227.264 296.788 227.502C297.026 227.74 297.16 228.063 297.16 228.4Z" fill="#263238"/>
<path d="M285.38 225.45C285.38 225.701 285.306 225.947 285.166 226.156C285.026 226.365 284.828 226.527 284.596 226.624C284.364 226.72 284.109 226.745 283.862 226.696C283.616 226.647 283.39 226.526 283.212 226.348C283.034 226.171 282.913 225.944 282.864 225.698C282.815 225.452 282.841 225.196 282.937 224.964C283.033 224.732 283.196 224.534 283.404 224.394C283.613 224.255 283.859 224.18 284.11 224.18C284.447 224.18 284.77 224.314 285.008 224.552C285.246 224.79 285.38 225.113 285.38 225.45Z" fill="#263238"/>
<path d="M287.93 238.64C287.93 238.64 290.07 243.06 293.82 242.64C297.57 242.22 297.3 237 297.3 237C294.474 238.652 291.149 239.235 287.93 238.64Z" fill="#263238" stroke="#263238" stroke-linecap="round" stroke-linejoin="round"/>
<path d="M300.1 197.42H299.8C295 197.97 288.7 198.98 284.85 202.07C280.16 205.81 281.77 206.75 286.05 208.89C290.33 211.03 303.05 218.13 304.26 228.3C305.47 238.47 301.31 254.4 299.31 261.63C297.31 268.86 299.97 273.81 303.86 277.29C304.736 278.104 305.778 278.72 306.913 279.096C308.048 279.472 309.251 279.6 310.44 279.47C312.62 279.25 315.36 278.67 317.09 277.25C317.28 277.1 319.47 274.79 319.09 274.48C317.17 272.85 314.86 275.19 313.69 272.95C311.3 268.35 315.01 262.84 317.52 259.06C319.57 255.97 322.98 254.06 325.06 251.06C327.084 247.824 328.311 244.153 328.64 240.35C329.59 232.21 328.06 223.58 325.2 215.95C321.49 206.05 313.81 197.25 302.5 197.28C301.72 197.29 300.9 197.33 300.1 197.42Z" fill="#263238"/>
<mask id="mask2_2_1812" style="mask-type:luminance" maskUnits="userSpaceOnUse" x="282" y="197" width="47" height="83">
<path d="M300.1 197.42H299.8C295 197.97 288.7 198.98 284.85 202.07C280.16 205.81 281.77 206.75 286.05 208.89C290.33 211.03 303.05 218.13 304.26 228.3C305.47 238.47 301.31 254.4 299.31 261.63C297.31 268.86 299.97 273.81 303.86 277.29C304.736 278.104 305.778 278.72 306.913 279.096C308.048 279.472 309.251 279.6 310.44 279.47C312.62 279.25 315.36 278.67 317.09 277.25C317.28 277.1 319.47 274.79 319.09 274.48C317.17 272.85 314.86 275.19 313.69 272.95C311.3 268.35 315.01 262.84 317.52 259.06C319.57 255.97 322.98 254.06 325.06 251.06C327.084 247.824 328.311 244.153 328.64 240.35C329.59 232.21 328.06 223.58 325.2 215.95C321.49 206.05 313.81 197.25 302.5 197.28C301.72 197.29 300.9 197.33 300.1 197.42Z" fill="white"/>
</mask>
<g mask="url(#mask2_2_1812)">
<path d="M278.91 201.62C278.91 201.62 292.91 203.13 301.83 215.24C310.75 227.35 313.29 235.57 313.07 246.81C312.85 258.05 321.94 263.25 328.64 260" stroke="#636363" stroke-linecap="round" stroke-linejoin="round"/>
<path d="M291.23 198.16C291.23 198.16 309.4 201.62 315.23 219.78C321.06 237.94 318.7 249 326.5 250.49" stroke="#636363" stroke-linecap="round" stroke-linejoin="round"/>
<path d="M300.31 232.11C300.31 232.11 307.02 248.33 305.31 263.68C303.6 279.03 310.31 281.85 321.1 279.03" stroke="#636363" stroke-linecap="round" stroke-linejoin="round"/>
</g>
<path d="M300.1 197.42H299.8C295 197.97 288.7 198.98 284.85 202.07C280.16 205.81 281.77 206.75 286.05 208.89C290.33 211.03 303.05 218.13 304.26 228.3C305.47 238.47 301.31 254.4 299.31 261.63C297.31 268.86 299.97 273.81 303.86 277.29C304.736 278.104 305.778 278.72 306.913 279.096C308.048 279.472 309.251 279.6 310.44 279.47C312.62 279.25 315.36 278.67 317.09 277.25C317.28 277.1 319.47 274.79 319.09 274.48C317.17 272.85 314.86 275.19 313.69 272.95C311.3 268.35 315.01 262.84 317.52 259.06C319.57 255.97 322.98 254.06 325.06 251.06C327.084 247.824 328.311 244.153 328.64 240.35C329.59 232.21 328.06 223.58 325.2 215.95C321.49 206.05 313.81 197.25 302.5 197.28C301.72 197.29 300.9 197.33 300.1 197.42Z" stroke="#263238" stroke-linecap="round" stroke-linejoin="round"/>
<path d="M234.92 272.24C235.999 273.218 237.279 273.948 238.67 274.38C238.67 274.38 240.81 280.94 240.67 286.16C240.658 289.71 240.906 293.256 241.41 296.77H257.81C254.804 291.588 252.248 286.158 250.17 280.54C247.63 272.91 248.7 268.62 246.96 263.67C245.22 258.72 244.41 256.31 241.47 252.43C238.53 248.55 235.85 249.75 235.85 251.09C235.85 252.43 237.45 252.96 238.66 254.84C239.487 256.232 240.158 257.711 240.66 259.25C240.66 259.25 235.03 261.8 233.43 264.61C231.83 267.42 233.18 270.63 234.92 272.24Z" fill="white" stroke="#263238" stroke-linecap="round" stroke-linejoin="round"/>
<path d="M231.04 262.47C231.04 262.47 228.9 264.47 228.9 266.47C228.9 268.47 230.5 271.29 231.31 271.29C232.12 271.29 232.51 269.82 232.11 268.35C231.71 266.88 231.04 262.47 231.04 262.47Z" fill="white" stroke="#263238" stroke-linecap="round" stroke-linejoin="round"/>
<path d="M233.58 259.65C233.58 259.65 231.04 261.26 230.37 263.27C230.148 264.144 230.128 265.057 230.314 265.939C230.499 266.822 230.885 267.65 231.44 268.36C232.24 269.56 234.65 269.83 235.32 269.16C235.99 268.49 235.45 267.02 235.32 266.16C235.19 265.3 233.85 262.68 233.98 261.48C234.059 260.856 234.106 260.229 234.12 259.6L233.58 259.65Z" fill="white" stroke="#263238" stroke-linecap="round" stroke-linejoin="round"/>
<path d="M240.68 259.25C240.68 259.25 237.19 257.11 234.52 258.58C231.85 260.05 231.97 263 232.91 265.14C233.85 267.28 236.26 268.49 237.33 267.55C238.4 266.61 237.19 265.14 237.46 263.14C237.73 261.14 240.68 259.25 240.68 259.25Z" fill="white" stroke="#263238" stroke-linecap="round" stroke-linejoin="round"/>
<path d="M244.16 263C244.16 263 241.34 259.25 238.8 259.52C236.26 259.79 232.11 264.52 232.91 265.68C233.71 266.84 238.5 265 238.5 265C238.5 265 237.16 269.42 240.5 270.35" fill="white"/>
<path d="M244.16 263C244.16 263 241.34 259.25 238.8 259.52C236.26 259.79 232.11 264.52 232.91 265.68C233.71 266.84 238.5 265 238.5 265C238.5 265 237.16 269.42 240.5 270.35" stroke="#263238" stroke-linecap="round" stroke-linejoin="round"/>
<path d="M333.44 296.77H169.41" stroke="#263238" stroke-linecap="round" stroke-linejoin="round"/>
<path d="M333.44 375.86H169.41" stroke="#263238" stroke-linecap="round" stroke-linejoin="round"/>
<path d="M257.63 375.54C257.63 375.54 259.09 362.6 254.07 359.2C249.05 355.8 227.23 340.12 218.82 338.2C210.41 336.28 205.24 334.48 201.82 336.42C198.4 338.36 184.38 351 178.56 355C172.74 359 169.83 363.25 169.02 366.32C168.518 369.039 168.353 371.81 168.53 374.57V375.86C168.53 375.86 257.96 375.21 257.63 375.54Z" fill="#263238" stroke="#263238" stroke-linecap="round" stroke-linejoin="round"/>
<path d="M201.84 336.4C200.5 337.268 199.215 338.216 197.99 339.24C198.027 342.566 198.706 345.853 199.99 348.92C204.17 359.08 213.58 364.84 220.99 361.79C227.31 359.19 230.18 351.07 228.35 342.46C225.358 340.647 222.154 339.209 218.81 338.18C210.41 336.24 205.24 334.46 201.84 336.4Z" fill="white" stroke="#263238" stroke-linecap="round" stroke-linejoin="round"/>
<path d="M203.78 321.2C203.78 321.2 203.46 331.07 202.65 335.27C201.84 339.47 201.84 345.14 205.89 352.27C209.94 359.4 219.79 359.06 222.89 356.27C225.99 353.48 225.31 345.76 225.31 342.85C225.31 339.94 227.02 333.1 227.02 333.1C227.02 333.1 217.55 329.43 212.7 326.2C207.85 322.97 205.4 320.23 203.78 321.2Z" fill="white" stroke="#263238" stroke-linecap="round" stroke-linejoin="round"/>
<path d="M229.5 294.85C229.5 294.85 233.38 301.48 234.35 303.42C234.731 304.276 234.886 305.216 234.8 306.149C234.714 307.082 234.391 307.978 233.86 308.75C232.98 309.98 240.86 313.82 240.72 315.84C240.58 317.86 239.87 318.97 238.28 321.26C236.54 323.76 237.19 327.95 236.42 330.89C235.77 333.39 234.97 334.01 232.42 334.95C227.56 336.73 218.51 336.08 213.98 333.82C209.45 331.56 207.84 327.51 206.22 324.6C204.6 321.69 204.44 316.35 205.41 310.69C206.38 305.03 213.98 297.43 218.83 295.33C223.68 293.23 229.5 294.85 229.5 294.85Z" fill="white" stroke="#263238" stroke-linecap="round" stroke-linejoin="round"/>
<path d="M234.18 324.76C232.852 325.113 231.466 325.195 230.105 325.001C228.744 324.806 227.437 324.34 226.26 323.63C226.26 323.63 226.26 328.48 228.69 328.63C231.12 328.78 234.18 324.76 234.18 324.76Z" fill="#263238"/>
<path d="M229.5 311.67C229.75 312.76 229.5 313.75 228.92 313.88C228.34 314.01 227.7 313.23 227.45 312.14C227.2 311.05 227.45 310.06 228.03 309.93C228.61 309.8 229.22 310.58 229.5 311.67Z" fill="#263238"/>
<path d="M223.19 308.43C223.748 307.592 224.525 306.923 225.436 306.494C226.348 306.066 227.359 305.895 228.36 306" stroke="#263238" stroke-linecap="round" stroke-linejoin="round"/>
<path d="M238.71 319.74C238.71 319.74 236.21 322.44 234.66 322.64C233.11 322.84 231.38 320.71 232.15 319.36" stroke="#263238" stroke-linecap="round" stroke-linejoin="round"/>
<path d="M210.09 321.2C210.86 320.95 214.62 321.53 214.09 319.42C213.56 317.31 212.48 317 213.28 315.42C214.08 313.84 222.34 309.92 220.56 306.69C219.376 304.603 217.968 302.651 216.36 300.87C216.36 300.87 229.94 298.28 232.85 294.24C235.76 290.2 232.53 283.89 229.13 283.89C225.73 283.89 227.35 285.02 218.3 287.89C209.25 290.76 204.71 287.25 197.92 294.36C191.13 301.47 193.23 315.36 195.82 319.75C198.41 324.14 203.58 327.67 206.17 326.7C208.76 325.73 208.15 321.85 210.09 321.2Z" fill="#263238" stroke="#263238" stroke-linecap="round" stroke-linejoin="round"/>
<path d="M212.5 322.66C212.5 322.66 206.5 315.06 202.5 317.48C198.5 319.9 204.44 327.19 207.03 328C209.62 328.81 212.69 326.86 212.69 326.86" fill="white"/>
<path d="M212.5 322.66C212.5 322.66 206.5 315.06 202.5 317.48C198.5 319.9 204.44 327.19 207.03 328C209.62 328.81 212.69 326.86 212.69 326.86" stroke="#263238" stroke-linecap="round" stroke-linejoin="round"/>
<path d="M332.36 421.93H168.17" stroke="#263238" stroke-linecap="round" stroke-linejoin="round"/>
<path d="M246.24 417.63C246.24 417.63 246.09 408.73 247.42 407.39C248.75 406.05 281.54 388.11 290.74 388.25C299.94 388.39 312.51 400.92 319.22 404.25C329.9 409.59 329.9 412.55 330.79 415.52C331.68 418.49 332.42 421.9 332.42 421.9H246.24V417.63Z" fill="white"/>
<mask id="mask3_2_1812" style="mask-type:luminance" maskUnits="userSpaceOnUse" x="246" y="388" width="87" height="34">
<path d="M246.24 417.63C246.24 417.63 246.09 408.73 247.42 407.39C248.75 406.05 281.54 388.11 290.74 388.25C299.94 388.39 312.51 400.92 319.22 404.25C329.9 409.59 329.9 412.55 330.79 415.52C331.68 418.49 332.42 421.9 332.42 421.9H246.24V417.63Z" fill="white"/>
</mask>
<g mask="url(#mask3_2_1812)">
<path d="M332 420.11C329.52 419.94 326.85 419.79 324 419.67L325.14 412.53L329.84 412.73C329.245 411.471 328.393 410.351 327.34 409.44L325.64 409.37L325.83 408.21C325.6 408.04 325.36 407.86 325.1 407.69L324.84 409.34L323.31 409.28L323.71 406.78C322.85 406.25 321.87 405.69 320.76 405.1L320.64 405.81C317.37 405.63 314.08 405.5 310.8 405.4L311.35 400.4L313.35 400.45C311.42 399.05 309.35 397.45 307.16 395.93L306.98 397.15C303.37 397.1 299.77 397.08 296.23 397.07L296.9 389.77L296.13 389.45L295.43 397.07H293.81L294.42 388.85C293.398 388.538 292.345 388.34 291.28 388.26L290.62 397.08C288.71 397.08 286.82 397.08 284.95 397.08L285.55 389.08L284.73 389.33L284.15 397.05H281.46L281.67 390.34C280.67 390.71 279.56 391.13 278.46 391.57L278.29 397.09C275.51 397.09 272.82 397.18 270.24 397.24L270.34 395.12L269.53 395.5L269.44 397.26H267.37V396.47C264.45 397.88 261.6 399.31 259 400.67L264 400.52L263.8 405.62L258.5 406L258.68 401L257.87 401.42L257.71 406.02L256.31 406.09L256.52 402.09C255.34 402.72 254.24 403.31 253.24 403.86L253.12 406.23L248.64 406.5C248.229 406.731 247.838 406.995 247.47 407.29L247.4 407.38L253.08 407.03L252.95 409.48L246.68 409.72C246.53 410.72 246.44 411.82 246.38 412.91C248.2 412.84 250.38 412.75 252.78 412.67L252.43 419.28L246.29 419.4V420.19L252.39 420.07L252.3 421.83H255.48L255.57 420.01H257.22L257.15 421.85H257.95L258.01 419.99L263.38 419.91L263.3 421.85H266.48L266.56 419.85H268.46L268.37 421.85H269.17L269.26 419.85L277.65 419.78L277.59 421.86H280.76L280.83 419.77H282.5L282.35 421.87H283.14L283.3 419.77H288.96L288.8 421.88H291.98L292.14 419.78H293.39L293.2 421.87H294L294.19 419.78C297.38 419.78 300.57 419.78 303.72 419.86L303.43 421.86H306.63L306.92 419.86H308.46L308.25 421.79H309.05L309.26 419.87C312.38 419.93 315.43 420.01 318.38 420.11L318.11 421.79H321.32L321.57 420.22L323.14 420.28L322.9 421.79H323.7L323.93 420.32C326.87 420.45 329.64 420.6 332.21 420.77C332.14 420.68 332.07 420.41 332 420.11ZM257.2 419.29H255.56L255.91 412.63L257.43 412.58L257.2 419.29ZM257.54 409.43L256.08 409.48L256.22 406.95L257.63 406.88L257.54 409.43ZM263.36 419.2L257.99 419.28L258.22 412.58L263.63 412.43L263.36 419.2ZM263.75 409.25L258.33 409.4L258.42 406.84C260.12 406.75 261.94 406.67 263.86 406.59L263.75 409.25ZM268.45 419.14H266.54L266.81 412.32H268.81L268.45 419.14ZM268.92 409.14L266.92 409.19L267.03 406.48L269.03 406.4L268.92 409.14ZM269.08 405.61L267.08 405.68L267.28 400.63H269.33L269.08 405.61ZM277.63 419.08L269.25 419.15L269.56 412.3L277.84 412.14L277.63 419.08ZM277.94 408.97C275.1 408.97 272.35 409.06 269.71 409.12L269.84 406.37C272.44 406.28 275.18 406.2 278.03 406.14L277.94 408.97ZM278.05 405.34C275.21 405.41 272.48 405.49 269.88 405.58L270.11 400.58C272.71 400.52 275.42 400.47 278.21 400.43L278.05 405.34ZM281.38 400.34H283.94L283.57 405.23H281.23L281.38 400.34ZM282.5 419H280.8L281.02 412H283.02L282.5 419ZM281.08 408.86L281.17 406.01H283.47L283.26 408.88L281.08 408.86ZM289 419H283.34L283.86 412H289.53L289 419ZM289.76 408.8H284.1L284.31 405.93C286.17 405.93 288.06 405.91 289.98 405.87L289.76 408.8ZM290.04 405.12L284.37 405.17L284.73 400.29H290.4L290.04 405.12ZM293.59 400.24H295.16L294.72 405.11H293.22L293.59 400.24ZM293.44 419H292.18L292.71 411.95H294.09L293.44 419ZM292.95 408.77L293.16 405.89H294.64L294.38 408.77H292.95ZM303.81 419.09C300.65 419.09 297.45 419.02 294.24 419.01L294.89 411.95C298.17 411.95 301.49 411.95 304.84 412L303.81 419.09ZM305.3 408.83C301.9 408.83 298.51 408.77 295.18 408.77L295.44 405.89C298.81 405.89 302.25 405.94 305.71 406.01L305.3 408.83ZM305.83 405.22C302.35 405.15 298.9 405.11 295.51 405.1L295.96 400.23C299.45 400.23 302.96 400.23 306.54 400.31L305.83 405.22ZM309.75 400.36H310.6L310.05 405.36H309.05L309.75 400.36ZM308.91 406.09H309.97L309.66 408.86H308.51L308.91 406.09ZM308.5 419.21H306.98L307.98 412.11H309.24L308.5 419.21ZM318.5 419.46C315.5 419.36 312.5 419.28 309.35 419.22L310.13 412.11C313.31 412.16 316.49 412.24 319.66 412.33L318.5 419.46ZM320.17 409.17C316.95 409.07 313.71 409 310.48 408.94L310.78 406.19C314.05 406.29 317.32 406.42 320.59 406.6L320.17 409.17ZM323.26 419.64L321.7 419.57L322.86 412.44L324.4 412.49L323.26 419.64Z" fill="#ADADAD"/>
</g>
<path d="M246.24 417.63C246.24 417.63 246.09 408.73 247.42 407.39C248.75 406.05 281.54 388.11 290.74 388.25C299.94 388.39 312.51 400.92 319.22 404.25C329.9 409.59 329.9 412.55 330.79 415.52C331.68 418.49 332.42 421.9 332.42 421.9H246.24V417.63Z" stroke="#263238" stroke-linecap="round" stroke-linejoin="round"/>
<path d="M285.84 384.69C285.84 384.69 281.39 384.99 280.21 387.22C279.03 389.45 279.61 390.78 277.21 397.45C274.81 404.12 273.5 406.06 274.84 406.06C276.18 406.06 279.84 402.2 281.21 401.61C282.58 401.02 285.67 406.2 285.67 406.2C285.67 406.2 291.6 403.09 293.53 402.94C295.46 402.79 299.61 410.8 300.35 409.47C301.09 408.14 303.02 403.24 305.1 398.79C307.18 394.34 307.62 390.63 305.84 387.66C304.06 384.69 287.33 383.8 285.84 384.69Z" fill="#263238" stroke="#263238" stroke-linecap="round" stroke-linejoin="round"/>
<path d="M283.17 383.21C282.486 387.781 282.436 392.425 283.02 397.01C284.02 403.68 285.55 407.54 286.73 406.65C287.91 405.76 295.19 401.31 298.9 396.71C302.61 392.11 303.2 391.52 304.24 389C305.28 386.48 306.46 383.66 306.46 383.66C306.46 383.66 292.67 388.85 283.17 383.21Z" fill="white" stroke="#263238" stroke-linecap="round" stroke-linejoin="round"/>
<path d="M283.32 358.73C283.32 358.73 280.65 354.58 279.17 359.48C277.69 364.38 281.24 367.04 281.69 366.74C282.14 366.44 283.32 358.73 283.32 358.73Z" fill="white" stroke="#263238" stroke-linecap="round" stroke-linejoin="round"/>
<path d="M284.66 348.35C284.66 348.35 279.76 369.56 278.72 375.65C277.68 381.74 284.36 387.36 291.78 388.4C299.2 389.44 306.31 385.88 308.24 382.17C310.17 378.46 316.24 354.73 317.14 353.1C318.04 351.47 321.14 344.35 318.78 341.97C316.42 339.59 312.55 341.38 312.55 341.38C312.55 341.38 309.87 334.55 305.28 334.38C300.69 334.21 300.08 336.3 300.08 336.3C300.08 336.3 296.08 331.41 292.37 332.45C288.66 333.49 288.66 335.86 288.66 335.86C288.66 335.86 281.84 334.23 279.32 339.12C276.8 344.01 283.77 345.5 283.77 345.5C283.77 345.5 282.28 347.61 284.66 348.35Z" fill="white" stroke="#263238" stroke-linecap="round" stroke-linejoin="round"/>
<path d="M311.8 365.71C312.25 365.56 315.22 360.81 318.03 362.71C320.84 364.61 317.59 371.91 315.22 373.09C314.815 373.309 314.369 373.44 313.911 373.475C313.452 373.511 312.992 373.45 312.558 373.296C312.125 373.143 311.728 372.9 311.395 372.584C311.061 372.267 310.797 371.885 310.62 371.46" fill="white"/>
<path d="M311.8 365.71C312.25 365.56 315.22 360.81 318.03 362.71C320.84 364.61 317.59 371.91 315.22 373.09C314.815 373.309 314.369 373.44 313.911 373.475C313.452 373.511 312.992 373.45 312.558 373.296C312.125 373.143 311.728 372.9 311.395 372.584C311.061 372.267 310.797 371.885 310.62 371.46" stroke="#263238" stroke-linecap="round" stroke-linejoin="round"/>
<path d="M318.78 342C316.4 339.63 312.55 341.41 312.55 341.41C312.55 341.41 309.87 334.58 305.28 334.41C300.69 334.24 300.08 336.33 300.08 336.33C300.08 336.33 296.08 331.44 292.37 332.48C288.66 333.52 288.66 335.89 288.66 335.89C288.66 335.89 281.84 334.26 279.32 339.15C276.8 344.04 283.77 345.53 283.77 345.53C283.77 345.53 282.28 347.61 284.66 348.35C285.55 347.46 287.33 343.46 296.38 343.35C305.43 343.24 312.69 349.73 312.69 349.73C312.69 349.73 309.43 353.58 310.47 355.21C311.51 356.84 312.69 356.7 312.55 358.03C312.41 359.36 309.55 371.53 308.39 373.46C307.751 374.397 306.839 375.114 305.778 375.513C304.716 375.912 303.558 375.974 302.46 375.69C300.38 375.09 299.19 373.61 295.46 371.69C291.73 369.77 288.63 369.02 285.96 370.06C283.29 371.1 283.14 371.99 281.66 372.43C280.38 372.82 279.98 371.98 279.61 370.99C279.21 372.92 278.89 374.57 278.69 375.7C277.69 381.78 284.33 387.41 291.75 388.45C299.17 389.49 306.28 385.93 308.21 382.22C310.14 378.51 316.21 354.78 317.11 353.15C318.01 351.52 321.15 344.35 318.78 342Z" fill="#8B5CF6" stroke="#263238" stroke-linecap="round" stroke-linejoin="round"/>
<path d="M286.59 372.83C286.59 372.83 292.07 376.24 295.78 374.16C295.78 374.16 292.07 378.61 290.15 378.61C288.23 378.61 286.59 372.83 286.59 372.83Z" fill="#263238" stroke="#263238" stroke-linecap="round" stroke-linejoin="round"/>
<path d="M290.74 360.29C290.74 361.279 290.447 362.246 289.897 363.068C289.348 363.89 288.567 364.531 287.653 364.909C286.74 365.288 285.734 365.387 284.765 365.194C283.795 365.001 282.904 364.525 282.204 363.826C281.505 363.126 281.029 362.235 280.836 361.265C280.643 360.296 280.742 359.29 281.121 358.377C281.499 357.463 282.14 356.682 282.962 356.133C283.784 355.583 284.751 355.29 285.74 355.29C287.066 355.29 288.338 355.817 289.276 356.754C290.213 357.692 290.74 358.964 290.74 360.29Z" stroke="#263238" stroke-linecap="round" stroke-linejoin="round"/>
<path d="M305.13 362.81C305.13 363.799 304.837 364.766 304.287 365.588C303.738 366.41 302.957 367.051 302.043 367.429C301.13 367.808 300.124 367.907 299.155 367.714C298.185 367.521 297.294 367.045 296.594 366.346C295.895 365.646 295.419 364.755 295.226 363.786C295.033 362.816 295.132 361.81 295.511 360.897C295.889 359.983 296.53 359.202 297.352 358.653C298.174 358.103 299.141 357.81 300.13 357.81C301.456 357.81 302.728 358.337 303.666 359.275C304.603 360.212 305.13 361.484 305.13 362.81Z" stroke="#263238" stroke-linecap="round" stroke-linejoin="round"/>
<path d="M290.89 359.77C290.89 359.77 292.96 358.77 295.49 360.77" stroke="#263238" stroke-linecap="round" stroke-linejoin="round"/>
<path d="M305.13 362.81L314.77 363.18" stroke="#263238" stroke-linecap="round" stroke-linejoin="round"/>
<path d="M291.63 360.37C290.408 362.679 289.32 365.056 288.37 367.49C288.07 368.82 289.7 369.56 291.78 369.56C293.86 369.56 294.78 368.67 294.78 367.78" stroke="#263238" stroke-linecap="round" stroke-linejoin="round"/>
<path d="M291.18 354.73C290.977 354.728 290.778 354.676 290.6 354.58C289.823 354.071 288.921 353.783 287.993 353.748C287.064 353.713 286.144 353.931 285.33 354.38C285.199 354.468 285.051 354.529 284.896 354.56C284.741 354.591 284.582 354.592 284.427 354.561C284.113 354.499 283.838 354.315 283.66 354.05C283.482 353.785 283.417 353.46 283.479 353.147C283.541 352.834 283.725 352.558 283.99 352.38C285.171 351.682 286.521 351.322 287.893 351.337C289.264 351.353 290.605 351.745 291.77 352.47C292.001 352.599 292.183 352.801 292.287 353.044C292.39 353.288 292.41 353.559 292.342 353.815C292.274 354.07 292.123 354.296 291.913 354.457C291.703 354.617 291.445 354.703 291.18 354.7V354.73Z" fill="#8B5CF6"/>
<path d="M305.72 359.63C305.525 359.634 305.332 359.591 305.158 359.504C304.984 359.417 304.834 359.288 304.72 359.13C304.02 358.048 303.002 357.21 301.805 356.731C300.608 356.253 299.293 356.158 298.04 356.46C297.743 356.541 297.426 356.504 297.155 356.356C296.885 356.209 296.682 355.962 296.59 355.668C296.498 355.373 296.524 355.055 296.662 354.78C296.8 354.504 297.039 354.293 297.33 354.19C299.062 353.734 300.894 353.832 302.567 354.471C304.241 355.109 305.672 356.256 306.66 357.75C306.788 357.93 306.864 358.143 306.878 358.363C306.893 358.584 306.845 358.804 306.741 358.999C306.637 359.195 306.481 359.357 306.29 359.468C306.099 359.58 305.881 359.636 305.66 359.63H305.72Z" fill="#8B5CF6"/>
<path d="M286.36 362.29C286.89 362.29 287.32 361.493 287.32 360.51C287.32 359.527 286.89 358.73 286.36 358.73C285.83 358.73 285.4 359.527 285.4 360.51C285.4 361.493 285.83 362.29 286.36 362.29Z" fill="#263238" stroke="#263238" stroke-linecap="round" stroke-linejoin="round"/>
<path d="M300.38 362.74C300.38 363.74 299.95 364.52 299.38 364.52C298.81 364.52 298.38 363.72 298.38 362.74C298.38 361.76 298.81 360.96 299.38 360.96C299.95 360.96 300.38 361.76 300.38 362.74Z" fill="#263238" stroke="#263238" stroke-linecap="round" stroke-linejoin="round"/>
<path d="M114.933 225.864C124.458 213.738 122.35 196.186 110.224 186.661C98.0978 177.136 80.5461 179.244 71.0209 191.37C61.4958 203.497 63.6042 221.048 75.7303 230.573C87.8564 240.099 105.408 237.99 114.933 225.864Z" stroke="#263238" stroke-miterlimit="10"/>
<path d="M82.26 216C82.26 216 101.11 217 107.6 199.68" stroke="#263238" stroke-width="2" stroke-linecap="round" stroke-linejoin="round"/>
<path d="M97.5 194.94C98.5 196.35 98.73 197.88 98.05 198.36C97.37 198.84 96.05 198.08 95.05 196.67C94.05 195.26 93.82 193.74 94.5 193.26C95.18 192.78 96.5 193.54 97.5 194.94Z" fill="#263238"/>
<path d="M85.28 202.76C86.28 204.16 86.52 205.69 85.83 206.17C85.14 206.65 83.83 205.9 82.83 204.49C81.83 203.08 81.6 201.55 82.28 201.08C82.96 200.61 84.29 201.35 85.28 202.76Z" fill="#263238"/>
<path d="M411.08 200.58C411.245 204.484 412.564 208.251 414.87 211.405C417.176 214.559 420.365 216.959 424.035 218.301C427.704 219.643 431.689 219.867 435.486 218.945C439.282 218.023 442.72 215.996 445.366 213.121C448.011 210.245 449.744 206.65 450.346 202.789C450.948 198.929 450.393 194.977 448.749 191.432C447.106 187.887 444.449 184.909 441.113 182.875C437.778 180.84 433.914 179.839 430.01 180C427.415 180.107 424.867 180.724 422.511 181.816C420.155 182.909 418.037 184.455 416.279 186.366C414.521 188.278 413.157 190.517 412.265 192.956C411.373 195.395 410.97 197.985 411.08 200.58Z" stroke="#263238" stroke-miterlimit="10"/>
<path d="M440.03 199.67C440.03 199.67 429.51 207.91 418.7 200.52" stroke="#263238" stroke-width="2" stroke-linecap="round" stroke-linejoin="round"/>
<path d="M423.73 195.87C424.321 195.87 424.8 194.885 424.8 193.67C424.8 192.455 424.321 191.47 423.73 191.47C423.139 191.47 422.66 192.455 422.66 193.67C422.66 194.885 423.139 195.87 423.73 195.87Z" fill="#263238"/>
<path d="M432.9 193.24C432.9 194.46 433.38 195.44 433.97 195.44C434.56 195.44 435.04 194.44 435.04 193.24C435.04 192.04 434.56 191.04 433.97 191.04C433.38 191.04 432.9 192 432.9 193.24Z" fill="#263238"/>
<path d="M129.393 431.877C139.566 421.416 139.332 404.689 128.872 394.517C118.411 384.344 101.684 384.578 91.5119 395.038C81.3393 405.499 81.5728 422.226 92.0335 432.398C102.494 442.571 119.221 442.337 129.393 431.877Z" stroke="#263238" stroke-miterlimit="10"/>
<path d="M95.57 422.07C95.57 422.07 112.57 412.38 128.94 410.07C128.94 410.07 133.64 425.55 117.94 431.55C104.42 436.7 95.57 422.07 95.57 422.07Z" stroke="#263238" stroke-miterlimit="10"/>
<path d="M98.92 414.61C98.6354 414.608 98.3567 414.529 98.1136 414.381C97.8706 414.233 97.6723 414.022 97.54 413.77L93.69 406.32C93.5287 405.959 93.5118 405.549 93.6427 405.176C93.7737 404.802 94.0426 404.493 94.3943 404.311C94.746 404.13 95.1538 404.089 95.5342 404.199C95.9146 404.308 96.2386 404.559 96.44 404.9L100.29 412.35C100.48 412.715 100.517 413.14 100.393 413.532C100.269 413.924 99.9946 414.25 99.63 414.44C99.409 414.549 99.1664 414.607 98.92 414.61Z" fill="#263238"/>
<path d="M119.5 407.16C119.144 407.159 118.8 407.036 118.523 406.813C118.247 406.589 118.055 406.278 117.98 405.93L116.19 397.46C116.163 397.087 116.271 396.718 116.495 396.418C116.718 396.119 117.043 395.911 117.408 395.832C117.773 395.753 118.154 395.808 118.482 395.988C118.809 396.168 119.061 396.46 119.19 396.81L120.98 405.29C121.066 405.692 120.989 406.111 120.766 406.456C120.543 406.801 120.192 407.044 119.79 407.13L119.5 407.16Z" fill="#263238"/>
<path d="M122.5 429.22C121.07 425.71 116.1 424.28 111.24 426.03C108.778 426.862 106.682 428.524 105.31 430.73" stroke="#263238" stroke-miterlimit="10"/>
<path d="M417.5 296.18C416.465 299.047 416.303 302.156 417.035 305.114C417.767 308.073 419.36 310.748 421.612 312.801C423.864 314.854 426.675 316.194 429.688 316.65C432.702 317.106 435.782 316.658 438.541 315.363C441.3 314.069 443.613 311.985 445.188 309.375C446.763 306.766 447.528 303.748 447.388 300.704C447.247 297.659 446.207 294.725 444.399 292.271C442.591 289.818 440.096 287.956 437.23 286.92C435.327 286.233 433.306 285.927 431.284 286.02C429.263 286.113 427.279 286.604 425.447 287.463C423.615 288.323 421.97 289.536 420.606 291.031C419.243 292.527 418.187 294.277 417.5 296.18Z" stroke="#263238" stroke-miterlimit="10"/>
<path d="M440.69 306.46C440.69 306.46 430.78 300.8 421.23 299.46C421.23 299.46 418.49 308.46 427.62 311.99C435.5 315 440.69 306.46 440.69 306.46Z" stroke="#263238" stroke-miterlimit="10"/>
<path d="M438.73 302.1C438.896 302.103 439.06 302.059 439.203 301.974C439.346 301.89 439.462 301.767 439.54 301.62L441.78 297.27C441.89 297.057 441.911 296.81 441.84 296.582C441.769 296.354 441.611 296.163 441.4 296.05C441.186 295.944 440.939 295.925 440.711 295.998C440.483 296.071 440.293 296.229 440.18 296.44L437.93 300.79C437.822 301.002 437.802 301.249 437.875 301.476C437.948 301.702 438.108 301.891 438.32 302C438.446 302.067 438.587 302.101 438.73 302.1Z" fill="#263238"/>
<path d="M426.75 297.76C426.957 297.76 427.158 297.688 427.318 297.557C427.478 297.425 427.589 297.243 427.63 297.04L428.68 292.1C428.71 291.982 428.716 291.86 428.697 291.74C428.678 291.62 428.636 291.505 428.571 291.403C428.507 291.3 428.423 291.211 428.323 291.141C428.224 291.072 428.112 291.023 427.993 290.998C427.874 290.973 427.752 290.972 427.633 290.996C427.514 291.02 427.401 291.067 427.3 291.135C427.2 291.204 427.115 291.292 427.049 291.394C426.984 291.496 426.94 291.61 426.92 291.73L425.87 296.67C425.845 296.786 425.843 296.905 425.864 297.021C425.885 297.138 425.929 297.249 425.993 297.348C426.057 297.447 426.14 297.533 426.238 297.6C426.335 297.668 426.444 297.715 426.56 297.74L426.75 297.76Z" fill="#263238"/>
<path d="M424.96 310.62C425.79 308.62 428.7 307.74 431.53 308.77C432.967 309.248 434.189 310.218 434.98 311.51" stroke="#263238" stroke-miterlimit="10"/>
<path d="M400.224 287.501C403.783 274.572 396.187 261.207 383.258 257.648C370.33 254.089 356.964 261.685 353.405 274.614C349.847 287.542 357.442 300.908 370.371 304.467C383.3 308.025 396.665 300.429 400.224 287.501Z" stroke="#263238" stroke-miterlimit="10"/>
<path d="M358.02 276.93C357.799 276.985 357.567 276.958 357.365 276.854C357.163 276.75 357.005 276.577 356.921 276.366C356.836 276.155 356.832 275.921 356.907 275.706C356.982 275.492 357.132 275.312 357.33 275.2L363.38 271.94L359.33 271.8C359.081 271.791 358.845 271.683 358.676 271.5C358.506 271.317 358.416 271.074 358.425 270.825C358.434 270.576 358.542 270.34 358.725 270.171C358.908 270.001 359.151 269.911 359.4 269.92L366.91 270.18C367.114 270.197 367.307 270.276 367.465 270.407C367.622 270.537 367.736 270.713 367.79 270.91C367.819 271.104 367.789 271.303 367.706 271.481C367.622 271.659 367.488 271.808 367.32 271.91L358.22 276.81L358.02 276.93Z" fill="#263238"/>
<path d="M390.39 268C390.317 268.01 390.243 268.01 390.17 268L380.29 268.32C380.082 268.328 379.878 268.268 379.708 268.147C379.539 268.027 379.414 267.854 379.353 267.655C379.293 267.456 379.3 267.242 379.373 267.048C379.447 266.853 379.583 266.689 379.76 266.58L386.43 262.42C386.646 262.301 386.897 262.266 387.137 262.322C387.377 262.377 387.588 262.519 387.73 262.72C387.86 262.931 387.902 263.185 387.846 263.427C387.79 263.668 387.64 263.878 387.43 264.01L383.71 266.33L390.11 266.13C390.336 266.128 390.556 266.207 390.728 266.354C390.9 266.501 391.014 266.705 391.048 266.929C391.082 267.152 391.034 267.381 390.913 267.572C390.793 267.763 390.607 267.905 390.39 267.97V268Z" fill="#263238"/>
<path d="M357.62 281.15C362.77 290.64 371.91 296.05 380.32 293.73C388.73 291.41 393.82 282.1 393.39 271.31L390.14 271.65C379.745 272.717 369.603 275.527 360.14 279.96L357.62 281.15Z" stroke="#263238" stroke-miterlimit="10"/>
<path d="M368.85 292.45C368.77 291.978 368.73 291.499 368.73 291.02C368.73 285.52 373.61 281.02 379.63 281.02C381.623 280.98 383.59 281.483 385.32 282.475C387.049 283.467 388.477 284.91 389.45 286.65" stroke="#263238" stroke-miterlimit="10"/>
<path d="M133.442 298.668C142.743 295.189 147.462 284.829 143.983 275.528C140.504 266.228 130.144 261.508 120.843 264.988C111.542 268.467 106.823 278.827 110.302 288.128C113.782 297.428 124.142 302.147 133.442 298.668Z" stroke="#263238" stroke-miterlimit="10"/>
<path d="M141.09 278.76C141.241 278.801 141.401 278.79 141.544 278.728C141.688 278.666 141.806 278.558 141.88 278.42C141.925 278.34 141.954 278.252 141.964 278.161C141.975 278.07 141.966 277.978 141.94 277.89C141.914 277.803 141.87 277.721 141.812 277.65C141.754 277.58 141.681 277.522 141.6 277.48L137.12 275.06L140.12 274.96C140.303 274.95 140.475 274.869 140.6 274.735C140.725 274.601 140.793 274.423 140.79 274.24C140.787 274.148 140.767 274.058 140.729 273.975C140.691 273.892 140.637 273.817 140.57 273.754C140.503 273.692 140.425 273.643 140.339 273.612C140.253 273.58 140.161 273.566 140.07 273.57L134.51 273.76C134.359 273.769 134.215 273.827 134.099 273.924C133.983 274.022 133.903 274.155 133.869 274.303C133.835 274.45 133.85 274.605 133.912 274.743C133.973 274.881 134.078 274.996 134.21 275.07L140.94 278.7L141.09 278.76Z" fill="#263238"/>
<path d="M117.13 272.17H117.29L124.6 272.4C124.753 272.408 124.905 272.364 125.031 272.275C125.156 272.187 125.249 272.059 125.294 271.912C125.338 271.765 125.333 271.607 125.278 271.464C125.223 271.32 125.122 271.199 124.99 271.12L120.05 268.04C119.971 267.984 119.882 267.945 119.787 267.926C119.693 267.907 119.595 267.907 119.501 267.928C119.407 267.949 119.318 267.989 119.24 268.046C119.163 268.103 119.098 268.176 119.05 268.26C118.994 268.339 118.955 268.428 118.936 268.523C118.916 268.617 118.917 268.715 118.938 268.809C118.959 268.903 118.999 268.992 119.056 269.07C119.113 269.147 119.186 269.212 119.27 269.26L122.02 270.97L117.28 270.82C117.189 270.817 117.099 270.833 117.014 270.865C116.93 270.897 116.852 270.946 116.786 271.008C116.72 271.07 116.667 271.145 116.63 271.227C116.593 271.31 116.573 271.399 116.57 271.49C116.571 271.65 116.628 271.805 116.73 271.929C116.832 272.053 116.973 272.138 117.13 272.17Z" fill="#263238"/>
<path d="M141.39 281.89C137.58 288.89 130.81 292.89 124.58 291.2C118.35 289.51 114.58 282.59 114.9 274.6L117.31 274.85C124.999 275.643 132.5 277.722 139.5 281L141.39 281.89Z" stroke="#263238" stroke-miterlimit="10"/>
<path d="M133.08 290.25C133.132 289.899 133.159 289.545 133.16 289.19C133.16 285.12 129.55 281.82 125.09 281.82C123.616 281.794 122.162 282.167 120.882 282.899C119.602 283.631 118.544 284.696 117.82 285.98" stroke="#263238" stroke-miterlimit="10"/>
<path d="M420.88 108.961C422.946 93.6807 412.233 79.6184 396.952 77.5523C381.672 75.4863 367.609 86.1989 365.543 101.48C363.477 116.76 374.19 130.823 389.471 132.889C404.751 134.955 418.814 124.242 420.88 108.961Z" stroke="#263238" stroke-miterlimit="10"/>
<path d="M381.71 96.61C381.71 98.33 382.38 99.73 383.22 99.73C384.06 99.73 384.72 98.33 384.72 96.61C384.72 94.89 384.05 93.5 383.22 93.5C382.39 93.5 381.71 94.89 381.71 96.61Z" fill="#263238"/>
<path d="M396.17 96.0001C396.17 97.7201 396.84 99.1101 397.67 99.1101C398.5 99.1101 399.18 97.7201 399.18 96.0001C399.18 94.2801 398.5 92.8901 397.67 92.8901C396.84 92.8901 396.17 94.2901 396.17 96.0001Z" fill="#263238"/>
<path d="M380.28 87.77L387.11 95.16" stroke="#263238" stroke-width="2" stroke-linecap="round" stroke-linejoin="round"/>
<path d="M398.55 87.2202L392.28 94.9702" stroke="#263238" stroke-width="2" stroke-linecap="round" stroke-linejoin="round"/>
<path d="M379.73 111.77C379.73 111.77 388.73 101.06 401.14 109.77" stroke="#263238" stroke-width="2" stroke-linecap="round" stroke-linejoin="round"/>
<path d="M69.5624 345.917C80.3982 345.809 89.0945 336.937 88.9862 326.101C88.8778 315.265 80.0058 306.569 69.17 306.677C58.3342 306.786 49.6378 315.658 49.7462 326.494C49.8545 337.329 58.7266 346.026 69.5624 345.917Z" stroke="#263238" stroke-miterlimit="10"/>
<path d="M69.57 316.67C70.4 317.56 70.72 318.6 70.29 319C69.86 319.4 68.85 319 68.02 318.11C67.19 317.22 66.88 316.19 67.31 315.79C67.74 315.39 68.75 315.79 69.57 316.67Z" fill="#263238"/>
<path d="M61.84 323.28C62.67 324.17 62.99 325.21 62.56 325.61C62.13 326.01 61.12 325.61 60.29 324.73C59.46 323.85 59.15 322.8 59.58 322.4C60.01 322 61.02 322.4 61.84 323.28Z" fill="#263238"/>
<path d="M66.08 311.44L66.09 318.51" stroke="#263238" stroke-width="2" stroke-linecap="round" stroke-linejoin="round"/>
<path d="M56.41 319.9L63.35 320.89" stroke="#263238" stroke-width="2" stroke-linecap="round" stroke-linejoin="round"/>
<path d="M77.85 323.52C77.85 323.52 68.07 322.34 65.85 332.73" stroke="#263238" stroke-width="2" stroke-linecap="round" stroke-linejoin="round"/>
<path d="M148.29 50.26C151.864 53.1565 154.62 56.9362 156.285 61.225C157.95 65.5137 158.466 70.1629 157.783 74.7125C157.099 79.262 155.239 83.5541 152.387 87.1641C149.535 90.7741 145.79 93.5768 141.522 95.2949C137.255 97.013 132.612 97.5868 128.055 96.9597C123.497 96.3325 119.182 94.5261 115.537 91.7192C111.892 88.9124 109.043 85.2023 107.272 80.9562C105.501 76.7101 104.869 72.0751 105.44 67.51" stroke="#263238" stroke-miterlimit="10"/>
<path d="M123.11 45.8101C124.415 45.373 125.753 45.0386 127.11 44.8101" stroke="#263238" stroke-miterlimit="10"/>
<path d="M116.78 79.4602C116.78 79.4602 133.78 69.7602 150.14 67.4602C150.14 67.4602 154.84 82.9502 139.19 88.9402C125.62 94.0802 116.78 79.4602 116.78 79.4602Z" stroke="#263238" stroke-miterlimit="10"/>
<path d="M143.74 86.6001C142.32 83.0901 137.34 81.6601 132.48 83.4101C130.021 84.2467 127.928 85.9116 126.56 88.1201" stroke="#263238" stroke-miterlimit="10"/>
<path d="M125.12 48.2801C124.228 46.7984 122.879 45.6458 121.276 44.9952C119.673 44.3446 117.903 44.231 116.23 44.6714C114.557 45.1118 113.072 46.0826 111.998 47.4381C110.923 48.7937 110.317 50.461 110.27 52.1901C108.724 51.4157 106.969 51.1631 105.267 51.4701C103.565 51.777 102.009 52.6271 100.831 53.893C99.6527 55.1588 98.9166 56.7723 98.7326 58.4916C98.5486 60.211 98.9266 61.9437 99.81 63.4301C103.56 69.6901 121.31 70.7701 121.31 70.7701C121.31 70.7701 129.91 56.2701 125.12 48.2801Z" stroke="#263238" stroke-miterlimit="10"/>
<path d="M150.72 45.2501C150.873 43.8601 150.571 42.4579 149.859 41.2542C149.147 40.0505 148.064 39.1103 146.772 38.5749C145.481 38.0394 144.05 37.9376 142.695 38.2848C141.341 38.632 140.135 39.4093 139.26 40.5001C138.651 39.2391 137.649 38.2105 136.404 37.5696C135.159 36.9287 133.739 36.7103 132.359 36.9474C130.979 37.1846 129.714 37.8644 128.754 38.8841C127.795 39.9039 127.193 41.2082 127.04 42.6001C126.39 48.4501 137.26 57.8301 137.26 57.8301C137.26 57.8301 149.88 52.7301 150.72 45.2501Z" stroke="#263238" stroke-miterlimit="10"/>
<path d="M372.87 376.86C370.143 379.065 368.04 381.944 366.768 385.213C365.496 388.481 365.1 392.024 365.619 395.493C366.138 398.961 367.555 402.233 369.728 404.986C371.9 407.739 374.755 409.876 378.008 411.186C381.261 412.496 384.8 412.933 388.274 412.455C391.748 411.976 395.037 410.598 397.815 408.458C400.592 406.317 402.763 403.488 404.111 400.251C405.459 397.013 405.938 393.48 405.5 390" stroke="#263238" stroke-miterlimit="10"/>
<path d="M392.04 373.47C391.042 373.127 390.019 372.862 388.98 372.68" stroke="#263238" stroke-miterlimit="10"/>
<path d="M396.87 399.1C396.87 399.1 383.93 391.71 371.45 389.93C371.45 389.93 367.87 401.72 379.8 406.28C390.13 410.24 396.87 399.1 396.87 399.1Z" stroke="#263238" stroke-miterlimit="10"/>
<path d="M376.33 404.54C377.41 401.87 381.2 400.78 384.9 402.11C386.777 402.742 388.375 404.008 389.42 405.69" stroke="#263238" stroke-miterlimit="10"/>
<path d="M390.5 375.35C391.179 374.218 392.208 373.338 393.432 372.841C394.655 372.345 396.007 372.26 397.283 372.598C398.559 372.937 399.691 373.681 400.507 374.718C401.324 375.756 401.781 377.03 401.81 378.35C402.988 377.744 404.332 377.54 405.638 377.767C406.943 377.994 408.139 378.64 409.043 379.608C409.948 380.576 410.512 381.813 410.651 383.131C410.789 384.448 410.494 385.775 409.81 386.91C406.95 391.68 393.43 392.5 393.43 392.5C393.43 392.5 386.87 381.44 390.5 375.35Z" stroke="#263238" stroke-miterlimit="10"/>
<path d="M371.02 373.05C370.898 371.99 371.124 370.92 371.664 370C372.204 369.08 373.03 368.361 374.015 367.952C375 367.543 376.092 367.466 377.125 367.733C378.158 368 379.076 368.595 379.74 369.43C380.207 368.473 380.971 367.694 381.919 367.209C382.866 366.723 383.946 366.559 384.995 366.739C386.044 366.919 387.007 367.435 387.738 368.209C388.469 368.982 388.929 369.972 389.05 371.03C389.55 375.49 381.26 382.63 381.26 382.63C381.26 382.63 371.65 378.74 371.02 373.05Z" stroke="#263238" stroke-miterlimit="10"/>
</svg>
