<svg width="52" height="53" viewBox="0 0 52 53" fill="none" xmlns="http://www.w3.org/2000/svg">
<rect x="0.5" y="1" width="51" height="51" rx="9.5" stroke="#E5E5E5"/>
<path d="M36.1408 14.0796C33.1008 14.1728 33.1016 18.5464 36.1408 18.6388C39.1808 18.5456 39.18 14.172 36.1408 14.0796ZM26 16.7188C20.612 16.7188 16.2444 21.098 16.2444 26.5C16.7584 39.4748 35.2432 39.4712 35.7552 26.5C35.7556 21.098 31.3876 16.7188 26 16.7188ZM26 32.8492C22.5028 32.8492 19.6676 30.0064 19.6676 26.5C20.0012 18.078 32.0004 18.08 32.3328 26.5C32.3324 30.0068 29.4972 32.8492 26 32.8492Z" fill="#A3A3A3"/>
<path d="M44.8832 18.6673C44.7424 12.0005 40.5008 7.75645 33.8324 7.61685C32.2312 7.46245 19.7696 7.45965 18.1672 7.61685C11.5004 7.75765 7.25636 11.9993 7.11676 18.6677C6.96236 20.2665 6.95916 32.7321 7.11676 34.3329C7.24116 40.9781 11.5212 45.2593 18.1672 45.3833C19.7684 45.5393 32.23 45.5393 33.8324 45.3833C35.8544 45.2909 37.2356 44.9697 38.444 44.5001C42.6788 42.8085 44.748 39.0457 44.8832 34.3325C45.0376 32.7313 45.0404 20.2697 44.8832 18.6673ZM33.6764 41.9637C32.1008 42.1141 19.9 42.1165 18.3232 41.9637C16.4712 41.8793 15.4652 41.5697 14.7956 41.3097C9.01596 38.6289 10.808 33.2077 10.5356 25.7665C10.5416 24.0381 10.532 20.5521 10.536 18.8237C10.7668 13.6709 13.1936 11.2853 18.3232 11.0365C19.9008 10.8861 32.0984 10.8837 33.6764 11.0365C38.8308 11.2673 41.214 13.6941 41.4636 18.8233C41.5656 20.0549 41.6396 26.7781 41.4636 30.1805C41.6536 36.5709 41.3624 41.5889 33.6764 41.9637Z" fill="#A3A3A3"/>
</svg>
