<svg width="52" height="53" viewBox="0 0 52 53" fill="none" xmlns="http://www.w3.org/2000/svg">
<rect x="0.5" y="1" width="51" height="51" rx="9.5" stroke="#E5E5E5"/>
<path d="M42.1916 7.50511C36.3472 7.48871 14.7908 7.51631 9.8084 7.50511C8.258 7.50511 7 8.72471 7 10.2267V42.7791C7 44.2815 8.258 45.4999 9.8084 45.4999H42.1916C43.7428 45.4999 45 44.2815 45 42.7787V10.2267C45 8.72471 43.7428 7.50511 42.1916 7.50511Z" fill="#A3A3A3"/>
<path d="M27.3812 39.302C27.3812 39.302 27.3812 29.7508 27.3812 29.7504C27.3256 27.9952 28.3748 26.3572 30.486 26.2836C32.5432 26.2836 33.3664 27.852 33.3664 30.1516V39.3016H39.052V29.494C39.052 24.24 36.2472 21.7952 32.506 21.7952C29.4388 21.7952 28.0916 23.5092 27.3432 24.6768L27.3812 22.1968H21.6956C21.7696 23.8016 21.6952 39.302 21.6952 39.302H27.3812ZM18.548 31.8844V22.1964H12.8616V39.3016H18.5484C18.5472 37.5056 18.5504 33.6552 18.548 31.8844ZM15.706 19.8616C17.6884 19.8616 18.9228 18.548 18.9228 16.9068C18.9064 12.948 12.5212 12.992 12.5264 16.9064C12.522 18.5604 13.7904 19.882 15.706 19.8616Z" fill="white"/>
</svg>
