<svg width="83" height="32" viewBox="0 0 83 32" fill="none" xmlns="http://www.w3.org/2000/svg">
<path d="M22.9867 14.1587C22.5586 14.5895 22.2308 15.1093 22.0265 15.6811C21.8223 16.2531 21.7467 16.863 21.8051 17.4674L21.7848 17.4471C21.8449 18.1586 21.7489 18.8746 21.5036 19.5453C21.2584 20.2158 20.8698 20.8248 20.3649 21.3297C19.86 21.8346 19.251 22.2233 18.5804 22.4684C17.9098 22.7137 17.1937 22.8097 16.4823 22.7496L16.5026 22.7699C15.6516 22.6907 14.7968 22.8759 14.0547 23.3003C13.3128 23.7247 12.7197 24.3675 12.3566 25.1413C11.9934 25.9151 11.8776 26.782 12.0251 27.624C12.1728 28.466 12.5764 29.2419 13.1811 29.846C13.7858 30.4501 14.562 30.8531 15.4041 30.9998C16.2462 31.1467 17.113 31.0301 17.8864 30.6662C18.6599 30.3023 19.3022 29.7088 19.7259 28.9664C20.1496 28.224 20.3341 27.3691 20.2541 26.518L20.2756 26.5384C20.2155 25.8269 20.3114 25.1108 20.5566 24.4402C20.8019 23.7696 21.1906 23.1606 21.6954 22.6557C22.2004 22.1509 22.8094 21.7622 23.4799 21.517C24.1506 21.2718 24.8665 21.1758 25.5781 21.2359L25.5566 21.2155C26.2518 21.278 26.9516 21.164 27.5911 20.8841C28.2304 20.6042 28.7889 20.1674 29.2146 19.6142C29.6402 19.061 29.9195 18.4092 30.0261 17.7194C30.1329 17.0296 30.0637 16.324 29.8251 15.6679C29.5866 15.012 29.1862 14.4268 28.6613 13.9667C28.1363 13.5066 27.5038 13.1865 26.8221 13.036C26.1405 12.8855 25.4319 12.9095 24.762 13.1057C24.0922 13.302 23.4827 13.6642 22.9901 14.1587H22.9867Z" fill="#262626"/>
<path d="M14.6535 20.1062L14.6321 20.0859C15.2367 20.1468 15.8474 20.0726 16.42 19.8686C16.9925 19.6646 17.5126 19.336 17.9425 18.9064C18.3724 18.4768 18.7015 17.9569 18.9059 17.3845C19.1104 16.8121 19.185 16.2016 19.1246 15.5968L19.1461 15.6171C19.086 14.9055 19.182 14.1896 19.4271 13.5189C19.6723 12.8484 20.0611 12.2394 20.5659 11.7345C21.0708 11.2296 21.6798 10.8409 22.3504 10.5958C23.021 10.3505 23.737 10.2546 24.4485 10.3146L24.4271 10.2943C25.2783 10.3743 26.1333 10.1896 26.8757 9.76573C27.6182 9.34183 28.2117 8.69921 28.5754 7.92557C28.9392 7.15193 29.0554 6.2849 28.9083 5.44275C28.7612 4.6006 28.358 3.82434 27.7534 3.21983C27.1489 2.61533 26.3726 2.21201 25.5305 2.06491C24.6884 1.9178 23.8214 2.03405 23.0477 2.39781C22.274 2.76156 21.6315 3.35513 21.2075 4.09753C20.7836 4.83993 20.599 5.69502 20.679 6.54617L20.6586 6.52471C20.7188 7.23625 20.623 7.95237 20.3779 8.62306C20.1328 9.29374 19.7441 9.90282 19.2392 10.4078C18.7343 10.9126 18.1252 11.3014 17.4545 11.5465C16.7838 11.7916 16.0677 11.8874 15.3561 11.8272L15.3765 11.8487C14.7718 11.7878 14.161 11.862 13.5885 12.066C13.016 12.2699 12.4959 12.5986 12.066 13.0282C11.6361 13.4578 11.307 13.9777 11.1025 14.5501C10.8982 15.1224 10.8235 15.733 10.8839 16.3378L10.8636 16.3175C10.9235 17.0289 10.8274 17.7449 10.5821 18.4154C10.3368 19.0859 9.94816 19.6948 9.44333 20.1997C8.93845 20.7045 8.32953 21.0931 7.65903 21.3385C6.98853 21.5837 6.27258 21.6798 5.56113 21.62L5.58146 21.6403C4.73031 21.5603 3.87521 21.7449 3.13281 22.1688C2.39042 22.5928 1.79685 23.2353 1.4331 24.009C1.06934 24.7827 0.953075 25.6497 1.10019 26.4918C1.2473 27.334 1.65062 28.1102 2.25512 28.7147C2.85963 29.3193 3.63589 29.7226 4.47804 29.8696C5.32019 30.0167 6.18721 29.9005 6.96086 29.5367C7.7345 29.173 8.37712 28.5795 8.80102 27.8371C9.22497 27.0946 9.40955 26.2396 9.32957 25.3884L9.35104 25.4087C9.29094 24.6972 9.38696 23.9812 9.6322 23.3106C9.87733 22.64 10.266 22.031 10.7709 21.5261C11.2758 21.0213 11.8848 20.6325 12.5553 20.3874C13.226 20.1422 13.942 20.0462 14.6535 20.1062Z" fill="#262626"/>
<path d="M7.08266 17.8388C7.51082 17.4082 7.83861 16.8884 8.04267 16.3164C8.24673 15.7445 8.322 15.1345 8.26313 14.5301L8.28458 14.5505C8.22448 13.8388 8.32046 13.1225 8.56582 12.4517C8.81119 11.781 9.20004 11.1719 9.70521 10.6669C10.2104 10.162 10.8196 9.77342 11.4905 9.52835C12.1614 9.28327 12.8777 9.18759 13.5893 9.248L13.5679 9.22767C14.4187 9.30738 15.2735 9.1227 16.0156 8.69882C16.7576 8.27495 17.3508 7.63249 17.7144 6.85909C18.0779 6.08568 18.194 5.21897 18.047 4.37714C17.8999 3.5353 17.4966 2.75934 16.8924 2.15505C16.2881 1.55077 15.5121 1.14758 14.6703 1.00048C13.8285 0.853371 12.9617 0.969519 12.1884 1.33306C11.4149 1.69659 10.7725 2.28984 10.3487 3.0319C9.9247 3.77395 9.74001 4.6287 9.81976 5.47955L9.79942 5.45922C9.85952 6.17072 9.7635 6.88676 9.51826 7.55735C9.27302 8.22794 8.88445 8.83694 8.37955 9.34184C7.87466 9.84674 7.26565 10.2354 6.59506 10.4805C5.92447 10.7258 5.20844 10.8218 4.49694 10.7617L4.51727 10.782C3.82207 10.7197 3.12236 10.8339 2.48302 11.1139C1.84367 11.394 1.28535 11.8309 0.859805 12.3842C0.434262 12.9374 0.155266 13.5892 0.0486519 14.2789C-0.0579512 14.9688 0.0112838 15.6743 0.249941 16.3302C0.488598 16.9862 0.888972 17.5712 1.41395 18.0312C1.93892 18.4913 2.57151 18.8113 3.25311 18.9618C3.93469 19.1122 4.64323 19.0881 5.31307 18.8919C5.98289 18.6955 6.59233 18.3334 7.08491 17.8388H7.08266Z" fill="#262626"/>
<path d="M43.2686 12.1667V14.7481H35.8444V12.1667H43.2686ZM37.5322 9.23235H40.9409V20.7052C40.9409 21.117 41.0329 21.4222 41.2167 21.6208C41.4006 21.812 41.6948 21.9076 42.0993 21.9076C42.2316 21.9076 42.3787 21.8966 42.5405 21.8745C42.7023 21.8524 42.842 21.8267 42.9597 21.7973L43.5003 24.3566C43.1252 24.4669 42.7611 24.5478 42.4081 24.5993C42.0625 24.6508 41.7205 24.6765 41.3822 24.6765C40.154 24.6765 39.2053 24.3713 38.5361 23.7609C37.8668 23.1431 37.5322 22.2753 37.5322 21.1574V9.23235ZM44.7579 24.5V12.1667H48.1666V24.5H44.7579ZM46.4567 10.5892C45.9493 10.5892 45.5154 10.4201 45.155 10.0818C44.7946 9.74348 44.6144 9.33531 44.6144 8.85728C44.6144 8.37924 44.7946 7.97475 45.155 7.64381C45.5154 7.30551 45.9493 7.13636 46.4567 7.13636C46.9715 7.13636 47.4091 7.30551 47.7695 7.64381C48.1298 7.97475 48.31 8.37924 48.31 8.85728C48.31 9.33531 48.1298 9.74348 47.7695 10.0818C47.4091 10.4201 46.9715 10.5892 46.4567 10.5892ZM53.6934 24.7317C52.9138 24.7317 52.2115 24.5956 51.5864 24.3235C50.9686 24.044 50.4832 23.6322 50.1302 23.088C49.7772 22.5437 49.6007 21.8671 49.6007 21.0582C49.6007 20.3668 49.7257 19.7932 49.9758 19.3372C50.2258 18.8739 50.5678 18.4988 51.0017 18.212C51.4356 17.9252 51.9284 17.7082 52.4799 17.5612C53.0315 17.4141 53.6162 17.3111 54.2339 17.2523C54.9473 17.1861 55.521 17.1199 55.9549 17.0537C56.3888 16.9875 56.705 16.8882 56.9036 16.7559C57.1095 16.6161 57.2125 16.4176 57.2125 16.1602V16.105C57.2125 15.5975 57.0507 15.2041 56.7271 14.9246C56.4108 14.6452 55.9622 14.5054 55.3812 14.5054C54.7708 14.5054 54.2817 14.6415 53.914 14.9136C53.5537 15.1783 53.3146 15.5166 53.197 15.9285L50.0309 15.6748C50.1927 14.9246 50.509 14.2774 50.9796 13.7332C51.4503 13.1816 52.0571 12.7588 52.7998 12.4646C53.55 12.1631 54.4178 12.0123 55.4033 12.0123C56.0872 12.0123 56.7418 12.0932 57.3669 12.255C57.992 12.4168 58.5473 12.6668 59.0327 13.0051C59.5254 13.3361 59.9152 13.7663 60.202 14.2958C60.4888 14.8253 60.6322 15.4541 60.6322 16.1822V24.5H57.3779V22.7791H57.2897C57.0911 23.1689 56.8264 23.5108 56.4954 23.805C56.1645 24.0918 55.7673 24.3198 55.304 24.489C54.8407 24.6508 54.3038 24.7317 53.6934 24.7317ZM54.6752 22.3709C55.1753 22.3709 55.6166 22.2716 55.999 22.0731C56.3888 21.8671 56.6903 21.595 56.9036 21.2567C57.1242 20.9111 57.2345 20.525 57.2345 20.0984V18.7857C57.1316 18.8519 56.9845 18.9144 56.7933 18.9732C56.6094 19.032 56.4035 19.0835 56.1755 19.1276C55.9475 19.1718 55.7195 19.2122 55.4915 19.249C55.2636 19.2784 55.0576 19.3078 54.8738 19.3372C54.4693 19.3961 54.1163 19.4917 53.8147 19.6241C53.5132 19.7491 53.2779 19.9219 53.1087 20.1425C52.9469 20.3558 52.866 20.6243 52.866 20.9478C52.866 21.4112 53.0352 21.7642 53.3735 22.0069C53.7118 22.2496 54.1457 22.3709 54.6752 22.3709ZM66.0377 17.3736V24.5H62.6289V12.1667H65.9825V14.362H66.1039C66.3833 13.6339 66.8283 13.0603 67.4387 12.6411C68.0491 12.2219 68.814 12.0123 69.7333 12.0123C70.5864 12.0123 71.3292 12.1998 71.9616 12.5749C72.6015 12.95 73.0979 13.4832 73.4509 14.1745C73.8039 14.8658 73.9804 15.6932 73.9804 16.6566V24.5H70.5717V17.2633C70.5717 16.5132 70.3768 15.9248 69.987 15.4983C69.5972 15.0644 69.0603 14.8474 68.3764 14.8474C67.9204 14.8474 67.5159 14.9504 67.1629 15.1563C66.8099 15.3549 66.5341 15.6417 66.3355 16.0167C66.137 16.3918 66.0377 16.8441 66.0377 17.3736Z" fill="#262626"/>
</svg>
